<?xml version="1.0" standalone="no"?>
<!DOCTYPE svg PUBLIC "-//W3C//DTD SVG 20010904//EN"
 "http://www.w3.org/TR/2001/REC-SVG-20010904/DTD/svg10.dtd">
<svg version="1.0" xmlns="http://www.w3.org/2000/svg"
 width="273.000000pt" height="184.000000pt" viewBox="0 0 273.000000 184.000000"
 preserveAspectRatio="xMidYMid meet">
<metadata>
Created by potrace 1.10, written by Peter Selinger 2001-2011
</metadata>
<g transform="translate(0.000000,184.000000) scale(0.050000,-0.050000)"
fill="#0b5394" stroke="none">
<path d="M2220 3548 c-104 -15 -278 -52 -387 -83 l-196 -55 2 -493 c2 -517 15
-620 103 -816 l41 -91 41 100 c36 89 54 299 28 325 -40 40 205 478 256 458 22
-8 25 16 17 118 -10 125 -9 129 60 198 89 89 95 88 183 -9 71 -79 73 -80 217
-80 80 -1 208 -14 284 -30 77 -16 144 -22 150 -12 15 25 158 82 204 82 65 0
109 -122 79 -220 -20 -69 -19 -89 10 -138 33 -56 28 -122 -9 -122 -10 0 -23
26 -30 58 -17 88 -150 110 -181 31 -19 -50 50 -169 97 -167 29 2 32 5 9 11
-48 13 -86 105 -49 119 52 20 101 -2 108 -49 3 -25 23 -63 44 -84 45 -45 51
-412 8 -499 -59 -119 -167 -140 -199 -40 l-14 43 -38 -40 c-150 -161 -458 -81
-458 119 0 89 -34 107 -44 23 -12 -105 -268 -41 -318 81 l-27 64 -14 -85 c-8
-47 -47 -138 -86 -201 -167 -271 -71 -454 405 -773 l194 -129 13 86 c24 161
277 472 277 341 0 -130 101 -188 198 -115 482 367 608 654 618 1406 l7 531
-197 54 c-403 112 -974 146 -1406 83z m929 -1595 c74 -54 -24 -113 -187 -113
-213 0 -240 79 -39 118 131 26 185 25 226 -5z"/>
<path d="M2212 3157 c-37 -53 -39 -81 -12 -177 36 -125 47 -132 127 -71 l72
55 -53 93 c-82 145 -95 155 -134 100z"/>
<path d="M3180 3030 c-46 -49 -46 -50 -9 -91 46 -51 89 -10 89 85 0 69 -19 71
-80 6z"/>
<path d="M2585 2800 c-54 -33 -105 -107 -105 -151 0 -5 22 -9 49 -9 27 0 54
-9 61 -20 7 -11 31 -20 53 -20 40 0 39 2 -6 38 -46 38 -46 39 -9 80 69 76 216
24 171 -61 -25 -45 -13 -48 30 -6 120 121 -86 246 -244 149z"/>
<path d="M3056 2346 c-92 -15 -111 -61 -33 -81 53 -14 69 -30 78 -76 l11 -59
34 65 c21 39 51 65 73 65 45 0 73 36 48 60 -23 22 -144 37 -211 26z"/>
</g>
</svg>
