<?xml version="1.0" standalone="no"?>
<!DOCTYPE svg PUBLIC "-//W3C//DTD SVG 20010904//EN"
 "http://www.w3.org/TR/2001/REC-SVG-20010904/DTD/svg10.dtd">
<svg version="1.0" xmlns="http://www.w3.org/2000/svg"
 width="273.000000pt" height="184.000000pt" viewBox="0 0 273.000000 184.000000"
 preserveAspectRatio="xMidYMid meet">
<metadata>
Created by potrace 1.10, written by Peter Selinger 2001-2011
</metadata>
<g transform="translate(0.000000,184.000000) scale(0.100000,-0.100000)"
fill="#0b5394" stroke="none">
<path d="M1105 1775 c-91 -15 -220 -46 -270 -65 l-27 -10 5 -248 c5 -258 10
-291 57 -400 l23 -53 14 38 c28 77 31 92 26 155 -5 56 -2 71 22 118 39 78 87
141 102 136 9 -4 11 10 6 59 -6 63 -5 65 30 100 19 19 39 35 45 35 5 0 26 -18
46 -40 36 -40 37 -40 108 -40 69 0 170 -17 212 -35 13 -6 17 -5 12 3 -9 15 68
54 97 50 16 -2 26 -15 36 -44 13 -36 12 -44 -2 -73 -15 -31 -15 -34 4 -60 12
-16 17 -34 13 -44 -9 -26 -21 -20 -27 13 -9 45 -78 56 -94 14 -9 -25 23 -84
46 -84 18 0 18 2 -6 26 -29 29 -21 48 18 42 17 -2 25 -11 27 -28 2 -13 11 -30
20 -36 14 -10 17 -33 18 -121 2 -111 -6 -142 -42 -174 -24 -21 -59 -10 -69 21
l-7 22 -23 -22 c-25 -23 -79 -39 -133 -40 -48 0 -92 48 -92 101 0 44 -17 53
-22 12 -4 -36 -22 -39 -90 -13 -44 16 -59 27 -69 53 l-13 32 -8 -43 c-4 -23
-23 -68 -43 -100 -28 -47 -35 -67 -35 -110 0 -66 14 -94 82 -158 48 -45 218
-167 252 -180 8 -3 41 12 75 33 l61 38 0 65 c0 46 -3 61 -10 50 -5 -8 -10 -36
-10 -61 0 -42 -3 -47 -47 -80 -27 -19 -51 -35 -55 -37 -14 -6 -9 47 7 86 15
34 100 132 116 132 4 0 9 -14 13 -32 7 -34 32 -68 51 -68 22 0 154 120 209
191 65 83 109 169 133 259 13 52 17 114 17 305 l1 239 -60 19 c-144 45 -245
58 -455 62 -148 3 -230 0 -295 -10z m505 -20 c96 -13 201 -36 253 -57 l29 -11
-4 -261 c-4 -228 -7 -267 -24 -311 -25 -67 -62 -135 -99 -182 -50 -66 -187
-193 -206 -193 -13 0 -24 13 -35 40 -11 27 -22 40 -35 40 -28 0 -122 -104
-139 -155 -15 -45 -15 -45 -43 -30 -51 26 -217 157 -240 189 -17 24 -22 45
-22 96 0 57 5 72 35 120 19 30 35 56 36 58 0 1 23 -8 50 -20 27 -11 63 -22 80
-23 23 -2 42 -14 69 -44 20 -22 44 -41 51 -41 8 0 14 -8 14 -18 0 -46 71 -69
152 -49 37 9 99 70 140 137 18 29 23 216 7 258 -7 17 -6 34 1 53 10 22 9 32
-5 53 -10 15 -14 33 -10 45 3 12 7 40 7 63 0 34 -5 47 -27 66 -31 26 -66 24
-123 -9 -25 -14 -38 -16 -58 -9 -14 6 -73 13 -130 17 -100 6 -104 7 -135 39
-44 45 -80 45 -125 0 -31 -31 -34 -40 -34 -91 0 -51 -4 -61 -36 -98 -19 -23
-49 -70 -65 -103 -25 -53 -29 -74 -29 -145 0 -89 -12 -127 -30 -99 -5 8 -17
46 -25 84 -20 87 -22 515 -3 527 28 18 128 42 236 59 139 22 382 24 522 5z
m-27 -784 c5 -5 -1 -18 -14 -30 -18 -17 -35 -21 -90 -21 -70 0 -103 16 -76 38
31 26 158 35 180 13z"/>
<path d="M1106 1579 c-19 -28 -20 -48 -4 -101 15 -51 28 -55 66 -22 l31 27
-26 46 c-41 72 -48 77 -67 50z m50 -61 c15 -30 15 -32 -2 -45 -16 -12 -20 -10
-30 9 -7 14 -9 30 -4 44 5 12 6 25 2 30 -4 4 -1 4 6 0 6 -4 19 -21 28 -38z"/>
<path d="M1588 1515 c-23 -31 -23 -37 3 -54 27 -16 39 -2 39 47 0 38 -18 42
-42 7z"/>
<path d="M1293 1400 c-53 -32 -70 -80 -29 -80 14 0 28 -4 31 -10 3 -5 18 -10
33 -9 25 0 26 1 6 9 -32 13 -38 29 -18 51 21 23 51 25 75 3 14 -13 16 -21 8
-35 -7 -14 -6 -17 4 -13 15 5 49 -62 62 -121 14 -61 16 -64 48 -67 28 -3 32
-7 32 -31 -1 -32 15 -30 32 4 7 13 22 26 34 29 33 8 34 28 3 40 -29 12 -101 4
-120 -11 -9 -7 -11 -2 -10 16 1 27 11 33 19 13 3 -8 6 -5 6 5 2 31 -59 165
-89 197 -34 36 -79 40 -127 10z m165 -120 c0 -13 0 -13 -5 0 -3 8 -12 22 -20
31 -8 9 -11 24 -6 34 5 16 9 13 19 -16 7 -19 12 -41 12 -49z m31 -63 c1 -5 -3
-5 -9 -2 -5 3 -10 16 -9 28 0 21 1 21 9 2 5 -11 9 -24 9 -28z m92 -76 c-8 -5
-20 -7 -28 -4 -21 8 -15 13 15 13 20 0 23 -3 13 -9z"/>
<path d="M1077 1354 c-4 -4 -7 -46 -7 -93 0 -83 -1 -87 -35 -130 -29 -36 -35
-52 -35 -92 0 -62 15 -65 17 -3 0 28 8 56 20 73 38 51 53 91 54 143 0 41 2 48
9 31 14 -35 51 -52 141 -68 46 -8 87 -15 90 -15 18 0 39 -84 34 -138 -4 -55
-4 -55 6 -17 15 56 12 91 -8 133 -18 36 -19 37 -114 52 -53 8 -103 21 -112 28
-9 8 -21 30 -28 50 -13 42 -22 55 -32 46z"/>
<path d="M1631 1243 l-21 -18 21 -25 c19 -24 20 -24 14 -3 -3 12 -1 31 5 43
13 25 9 25 -19 3z"/>
</g>
</svg>
