<?xml version="1.0" standalone="no"?>
<!DOCTYPE svg PUBLIC "-//W3C//DTD SVG 20010904//EN"
 "http://www.w3.org/TR/2001/REC-SVG-20010904/DTD/svg10.dtd">
<svg version="1.0" xmlns="http://www.w3.org/2000/svg"
 width="273.000000pt" height="184.000000pt" viewBox="0 0 273.000000 184.000000"
 preserveAspectRatio="xMidYMid meet">
<metadata>
Created by potrace 1.16, written by Peter Selinger 2001-2019
</metadata>
<g transform="translate(0.000000,184.000000) scale(0.100000,-0.100000)"
fill="#000000" stroke="none">
<path d="M1135 1779 c-76 -10 -252 -51 -299 -68 l-29 -12 6 -242 c5 -252 13
-306 58 -406 l21 -46 24 64 c14 35 22 71 19 81 -14 45 -7 108 20 160 41 82 85
142 100 136 10 -3 11 10 7 59 -5 63 -4 65 31 100 19 19 39 35 45 35 5 0 26
-18 46 -40 36 -40 37 -40 108 -40 40 0 104 -7 142 -15 57 -12 73 -12 85 -2 22
18 68 37 91 37 21 0 50 -46 50 -77 0 -10 -6 -29 -14 -43 -11 -22 -11 -29 6
-56 10 -18 15 -39 12 -48 -9 -25 -21 -19 -27 13 -9 44 -76 55 -91 15 -8 -22
25 -84 45 -84 15 0 14 4 -8 26 -29 29 -21 48 18 42 16 -2 25 -11 27 -26 2 -13
12 -32 22 -42 17 -17 19 -34 18 -122 -1 -105 -10 -139 -44 -169 -24 -21 -59
-10 -69 21 l-7 22 -22 -21 c-27 -25 -76 -41 -129 -41 -54 0 -97 45 -97 101 0
47 -15 52 -24 8 -6 -29 -8 -31 -38 -25 -55 11 -102 40 -118 71 l-14 30 -8 -43
c-4 -23 -23 -68 -43 -100 -39 -64 -46 -126 -22 -185 19 -43 107 -122 225 -201
90 -61 97 -64 100 -43 9 65 27 101 73 151 53 58 69 67 69 41 0 -25 28 -72 46
-79 21 -8 68 27 152 112 80 81 151 189 182 278 23 65 25 83 28 335 l3 266 -82
22 c-45 13 -114 29 -153 37 -87 18 -442 27 -541 13z"/>
</g>
</svg>
