<?xml version="1.0" standalone="no"?>
<!DOCTYPE svg PUBLIC "-//W3C//DTD SVG 20010904//EN"
 "http://www.w3.org/TR/2001/REC-SVG-20010904/DTD/svg10.dtd">
<svg version="1.0" xmlns="http://www.w3.org/2000/svg"
 width="225.000000pt" height="225.000000pt" viewBox="0 0 225.000000 225.000000"
 preserveAspectRatio="xMidYMid meet">
<metadata>
Created by potrace 1.16, written by Peter Selinger 2001-2019
</metadata>
<g transform="translate(0.000000,225.000000) scale(0.100000,-0.100000)"
fill="#000000" stroke="none">
<path d="M972 1860 c-149 -31 -290 -113 -396 -230 -118 -130 -182 -279 -193
-450 -15 -255 81 -478 273 -631 161 -128 344 -181 551 -160 300 31 533 226
634 531 32 97 32 305 0 410 -47 152 -117 265 -219 350 -29 25 -59 51 -67 58
-24 22 -138 78 -205 102 -52 18 -92 23 -200 26 -74 2 -155 -1 -178 -6z m649
-302 c2 -155 -3 -383 -11 -459 -24 -215 -141 -433 -294 -546 -48 -36 -8 -27
83 20 107 54 210 151 260 244 56 105 81 196 81 298 0 76 -21 209 -39 242 -24
46 -61 123 -61 129 0 20 31 -25 54 -79 15 -34 31 -70 36 -79 6 -10 15 -61 22
-114 12 -97 1 -238 -21 -282 -5 -9 -19 -42 -32 -72 -56 -129 -173 -249 -299
-307 -67 -31 -82 -36 -111 -38 -15 -2 -54 -19 -88 -39 -34 -20 -70 -36 -80
-36 -20 0 -139 61 -173 88 -133 106 -210 211 -277 377 -51 127 -75 404 -54
638 l6 67 498 0 499 0 1 -52z m-1046 -115 c-15 -26 -39 -82 -53 -123 -22 -65
-26 -91 -25 -195 1 -161 27 -244 116 -364 52 -70 80 -99 142 -142 52 -36 155
-89 175 -89 6 0 9 -4 5 -9 -18 -31 -234 101 -301 184 -16 19 -37 45 -46 57
-57 68 -118 260 -118 368 0 69 28 195 55 246 8 16 15 34 15 39 0 15 51 88 57
82 2 -3 -8 -27 -22 -54z"/>
<path d="M748 1473 c-2 -5 -2 -65 0 -135 l3 -128 150 0 149 0 0 135 0 135
-149 0 c-83 0 -151 -3 -153 -7z"/>
<path d="M1180 1345 l0 -135 155 0 155 0 0 135 0 135 -155 0 -155 0 0 -135z"/>
<path d="M760 1063 c0 -18 31 -134 39 -150 5 -10 21 -42 35 -70 15 -29 34 -63
44 -75 34 -45 111 -117 142 -133 l30 -16 -2 223 -3 223 -142 3 c-79 1 -143 -1
-143 -5z"/>
<path d="M1180 851 c0 -121 4 -222 9 -225 17 -11 113 69 166 139 56 73 115
215 115 275 l0 30 -145 0 -145 0 0 -219z"/>
</g>
</svg>
