<?xml version="1.0" standalone="no"?>
<!DOCTYPE svg PUBLIC "-//W3C//DTD SVG 20010904//EN"
 "http://www.w3.org/TR/2001/REC-SVG-20010904/DTD/svg10.dtd">
<svg version="1.0" xmlns="http://www.w3.org/2000/svg"
 width="225.000000pt" height="225.000000pt" viewBox="0 0 225.000000 225.000000"
 preserveAspectRatio="xMidYMid meet">
<metadata>
Created by potrace 1.10, written by Peter Selinger 2001-2011
</metadata>
<g transform="translate(0.000000,225.000000) scale(0.100000,-0.100000)"
fill="#0b5394" stroke="none">
<path d="M1005 2244 c-61 -7 -228 -44 -240 -53 -5 -5 -25 -12 -44 -16 -19 -4
-41 -14 -49 -21 -7 -8 -20 -14 -29 -14 -8 0 -43 -17 -77 -37 -57 -34 -75 -47
-134 -91 -26 -19 -144 -135 -182 -178 -50 -57 -150 -224 -150 -251 0 -6 -3
-13 -7 -15 -9 -3 -46 -114 -64 -188 -42 -171 -29 -471 26 -595 7 -16 16 -45
20 -64 4 -19 14 -41 21 -49 8 -7 14 -20 14 -28 0 -8 4 -14 8 -14 5 0 14 -17
20 -39 7 -21 19 -44 27 -51 8 -7 15 -18 15 -24 0 -6 8 -19 17 -28 10 -10 42
-48 72 -85 51 -63 176 -181 204 -193 7 -3 32 -18 57 -34 67 -45 190 -102 233
-110 20 -4 37 -11 37 -15 0 -5 28 -12 63 -16 34 -4 73 -12 87 -17 14 -5 90 -9
170 -8 173 1 190 2 190 11 0 3 24 9 53 13 63 7 186 48 246 81 24 14 50 25 57
25 8 0 14 4 14 8 0 5 12 15 28 22 96 49 332 276 332 320 0 7 7 10 14 7 9 -4
13 -1 10 7 -3 7 7 29 21 49 13 21 28 49 31 62 3 14 10 25 14 25 5 0 11 13 15
30 4 16 10 30 15 30 5 0 11 15 15 32 4 18 13 47 20 63 8 17 17 55 21 85 4 30
11 60 16 67 15 19 3 337 -16 423 -20 91 -20 93 -28 105 -3 6 -9 25 -13 43 -3
17 -11 32 -16 32 -5 0 -9 7 -9 15 0 17 -48 117 -60 125 -7 5 -30 45 -48 85
-15 32 -186 208 -234 240 -23 17 -46 34 -49 38 -12 16 -168 97 -187 97 -6 0
-12 3 -14 8 -5 12 -98 43 -163 55 -33 5 -62 14 -65 18 -6 9 -267 19 -325 13z
m260 -23 c55 -7 109 -16 120 -21 11 -4 42 -14 70 -21 27 -7 80 -28 118 -46 37
-18 72 -33 77 -33 6 0 10 -4 10 -9 0 -5 10 -13 22 -17 27 -8 112 -67 156 -108
80 -74 122 -117 122 -124 0 -4 8 -15 18 -23 27 -25 62 -72 62 -86 0 -6 6 -16
13 -20 16 -10 97 -174 97 -195 0 -9 4 -18 8 -20 4 -1 19 -43 33 -93 22 -82 24
-109 24 -298 0 -143 -3 -210 -11 -215 -6 -4 -15 -27 -19 -52 -4 -25 -16 -64
-26 -87 -11 -23 -19 -46 -19 -51 0 -28 -126 -235 -154 -254 -6 -4 -8 -8 -4 -8
5 0 -15 -23 -42 -51 -28 -28 -50 -55 -50 -60 0 -5 -5 -9 -10 -9 -6 0 -23 -12
-38 -28 -25 -25 -58 -50 -101 -77 -9 -6 -34 -22 -56 -36 -22 -14 -62 -35 -90
-48 -27 -12 -63 -28 -80 -36 -93 -43 -219 -64 -390 -63 -174 0 -298 18 -380
57 -11 5 -49 22 -85 37 -36 15 -72 34 -81 41 -8 7 -18 13 -22 13 -19 0 -137
93 -203 159 -89 91 -94 96 -125 141 -13 19 -27 37 -31 40 -4 3 -28 48 -53 100
-26 52 -50 102 -54 110 -4 8 -14 40 -21 70 -7 30 -16 60 -21 66 -5 6 -12 50
-15 97 -4 48 -11 87 -15 87 -5 0 -9 36 -9 80 0 44 4 80 9 80 5 0 12 40 15 90
4 50 11 90 16 90 4 0 11 19 15 43 14 80 98 253 171 350 55 72 232 247 250 247
8 0 89 55 92 63 2 4 8 7 13 7 6 0 44 16 85 35 42 20 99 40 127 46 29 6 57 15
62 20 6 4 46 11 90 15 44 4 91 11 105 15 27 9 52 7 205 -10z"/>
<path d="M1065 2193 c-89 -7 -210 -25 -220 -32 -5 -4 -36 -14 -67 -21 -32 -7
-58 -17 -58 -21 0 -4 -13 -10 -30 -14 -16 -4 -30 -10 -30 -15 0 -4 -11 -11
-25 -14 -31 -8 -205 -124 -205 -137 0 -5 -4 -9 -10 -9 -13 0 -96 -86 -144
-150 -23 -30 -44 -56 -48 -58 -5 -2 -8 -9 -8 -17 0 -7 -7 -18 -14 -25 -8 -6
-20 -28 -27 -48 -7 -20 -18 -43 -26 -50 -7 -7 -13 -22 -13 -33 0 -10 -4 -19
-8 -19 -5 0 -15 -26 -22 -57 -7 -32 -17 -63 -21 -68 -14 -18 -31 -178 -31
-280 0 -104 18 -266 31 -275 7 -5 30 -89 33 -117 1 -7 5 -13 10 -13 4 0 8 -6
8 -13 0 -22 84 -168 135 -235 29 -39 176 -181 213 -207 101 -71 259 -149 324
-161 18 -4 38 -11 44 -15 15 -12 174 -29 270 -29 88 0 243 18 259 30 6 4 26
10 45 14 34 6 140 46 150 56 3 3 32 18 65 35 33 16 65 34 70 41 6 6 37 32 70
57 77 59 123 102 159 152 17 22 33 42 36 45 15 12 91 137 96 158 4 12 10 22
14 22 5 0 12 15 15 32 4 18 11 38 15 43 5 6 14 33 21 60 6 28 16 55 20 61 5 6
14 68 21 138 9 100 9 154 -1 254 -7 70 -16 129 -21 132 -4 3 -11 23 -15 45 -4
22 -13 50 -21 62 -8 12 -14 28 -14 35 0 7 -14 38 -30 68 -16 30 -36 70 -45 88
-8 17 -20 32 -25 32 -6 0 -10 5 -10 11 0 34 -180 214 -286 287 -34 24 -53 34
-84 48 -19 9 -37 19 -40 23 -9 11 -116 52 -154 58 -20 3 -36 9 -36 13 0 15
-251 40 -335 33z m254 -31 c3 -5 31 -13 61 -19 62 -12 121 -33 198 -69 50 -24
53 -26 35 -40 -17 -14 -17 -14 4 -5 21 10 46 6 68 -11 130 -102 169 -135 218
-187 31 -34 57 -64 57 -67 0 -2 16 -26 34 -52 19 -26 40 -59 45 -72 6 -14 15
-32 21 -40 11 -18 31 -65 59 -137 18 -47 38 -147 33 -165 -1 -5 3 -8 8 -8 12
0 14 -316 1 -324 -4 -3 -11 -32 -14 -64 -4 -32 -13 -72 -22 -88 -8 -16 -15
-35 -15 -43 0 -13 -32 -88 -51 -121 -5 -8 -13 -25 -19 -38 -9 -21 -17 -33 -46
-65 -6 -7 -17 -23 -24 -36 -45 -85 -262 -280 -297 -267 -6 3 -10 0 -7 -7 6
-16 -131 -86 -201 -103 -17 -4 -35 -10 -40 -15 -6 -4 -35 -11 -65 -15 -30 -4
-61 -11 -67 -17 -19 -14 -326 -14 -331 1 -2 7 -17 12 -32 12 -40 0 -133 20
-145 31 -5 5 -16 9 -25 9 -31 0 -244 120 -301 169 -76 66 -159 156 -198 216
-14 22 -29 41 -33 43 -5 2 -8 9 -8 16 0 8 -8 24 -18 37 -11 13 -22 36 -26 52
-3 15 -11 27 -16 27 -5 0 -12 16 -16 37 -4 20 -13 48 -20 62 -7 14 -16 46 -20
71 -4 25 -12 51 -18 59 -15 19 -15 359 0 392 6 13 16 47 22 74 47 233 241 494
469 632 28 18 54 29 57 26 3 -4 6 -1 6 5 0 6 14 13 30 17 17 4 30 10 30 15 0
4 23 13 50 20 28 7 52 16 55 20 3 5 29 11 58 15 28 4 57 11 62 15 6 5 31 11
55 13 68 7 333 -1 339 -11z"/>
<path d="M1110 2150 c-9 -6 -10 -10 -3 -10 6 0 15 5 18 10 8 12 4 12 -15 0z"/>
<path d="M1035 2111 c-52 -9 -65 -17 -65 -45 0 -28 29 -56 57 -56 48 0 66 -24
44 -59 -13 -20 -71 -5 -71 19 0 10 -7 20 -15 24 -8 3 -15 1 -15 -4 0 -6 5 -10
10 -10 6 0 10 -11 10 -25 0 -22 4 -25 39 -25 45 0 71 20 71 54 0 35 -27 50
-96 55 -23 2 -22 39 1 51 32 17 58 9 66 -20 6 -21 7 -20 8 13 1 20 0 36 -1 36
-2 -1 -21 -4 -43 -8z"/>
<path d="M1195 2083 c7 -16 16 -40 19 -55 6 -25 3 -28 -18 -28 -23 0 -24 2
-14 31 6 16 8 32 5 35 -3 3 -8 -8 -12 -25 -4 -17 -11 -31 -16 -31 -5 0 -11
-11 -15 -25 -3 -14 -12 -25 -20 -25 -8 0 -14 -4 -14 -10 0 -11 48 -25 57 -16
4 3 -1 6 -9 6 -26 0 -9 39 20 47 29 7 55 -7 60 -31 2 -10 -4 -16 -15 -17 -10
-1 7 -5 37 -10 30 -5 57 -14 58 -19 2 -6 11 -10 19 -10 14 0 14 2 0 18 -12 13
-15 28 -10 55 3 20 10 37 14 37 5 0 9 9 9 20 0 11 -4 20 -10 20 -5 0 -10 -6
-10 -12 0 -19 -19 -81 -29 -98 -15 -22 -47 12 -56 58 -4 20 -11 39 -16 42 -4
3 -9 20 -11 38 -2 23 -7 32 -19 32 -16 0 -16 -3 -4 -27z"/>
<path d="M1330 2085 c0 -8 4 -15 9 -15 9 0 35 -67 53 -137 6 -24 16 -43 22
-43 6 0 21 34 34 75 13 41 28 75 33 75 23 0 6 18 -21 22 -16 3 -30 1 -30 -4 0
-4 4 -8 10 -8 10 0 8 -56 -3 -67 -4 -3 -7 -18 -7 -32 0 -24 -1 -25 -14 -6 -7
11 -16 31 -20 45 -11 39 -48 110 -58 110 -4 0 -8 -7 -8 -15z"/>
<path d="M820 2078 c0 -10 -3 -17 -7 -17 -28 4 -46 -5 -62 -32 -18 -29 -18
-32 -3 -50 12 -13 30 -19 61 -19 27 0 51 -6 63 -17 15 -13 18 -13 18 -2 0 27
-38 50 -72 44 -18 -4 -34 -8 -36 -10 -5 -4 -32 20 -32 29 0 14 35 36 57 36 21
0 24 -4 20 -22 -6 -19 -5 -20 10 -5 15 14 15 19 0 49 -10 20 -17 26 -17 16z"/>
<path d="M1120 2071 c0 -6 4 -13 10 -16 6 -3 7 1 4 9 -7 18 -14 21 -14 7z"/>
<path d="M1274 2068 c-3 -5 -3 -12 0 -15 3 -4 6 0 7 8 0 10 2 10 7 -2 6 -14 9
-14 19 -4 9 10 8 14 -8 18 -10 3 -22 1 -25 -5z"/>
<path d="M1527 1989 c-9 -5 -26 -27 -37 -49 -18 -36 -19 -40 -3 -72 21 -42 30
-48 73 -47 33 1 33 2 8 8 -41 9 -68 37 -68 70 0 36 42 89 69 87 25 -1 77 -46
64 -55 -6 -3 -14 -17 -18 -31 -7 -22 -6 -23 9 -8 9 9 16 21 16 27 0 5 7 17 16
25 9 10 11 16 4 16 -7 0 -23 9 -37 20 -28 22 -68 25 -96 9z"/>
<path d="M555 1980 c-3 -6 1 -7 9 -4 18 7 21 14 7 14 -6 0 -13 -4 -16 -10z"/>
<path d="M932 1955 c0 -16 2 -22 5 -12 2 9 2 23 0 30 -3 6 -5 -1 -5 -18z"/>
<path d="M600 1961 c0 -5 6 -11 12 -13 7 -3 14 -20 14 -39 1 -19 5 -51 10 -73
5 -28 3 -41 -7 -48 -10 -6 -7 -7 11 -3 14 4 32 14 40 22 13 13 13 14 -7 9 -20
-6 -22 -2 -28 49 -8 63 -4 73 19 50 20 -21 21 -35 1 -35 -8 0 -15 -4 -15 -10
0 -5 7 -10 15 -10 8 0 15 5 15 10 0 15 30 12 47 -5 16 -17 29 -15 106 17 26
11 47 24 47 29 0 12 -17 12 -22 0 -9 -23 -47 -21 -74 4 -34 32 -41 32 -20 0
21 -32 20 -40 -4 -42 -11 -1 -20 2 -20 8 0 5 -5 9 -11 9 -6 0 -33 18 -59 40
-47 39 -70 49 -70 31z"/>
<path d="M530 1945 c6 -8 -9 -29 -46 -63 -30 -29 -59 -52 -63 -52 -5 0 -8 -11
-7 -24 0 -15 6 -22 16 -21 8 2 17 4 19 4 2 1 -1 7 -6 14 -7 8 -4 17 7 28 16
15 20 14 54 -22 20 -21 36 -42 36 -45 0 -4 8 -13 18 -20 15 -12 15 -15 2 -24
-9 -6 -10 -10 -3 -10 7 0 17 8 22 18 6 9 11 13 11 7 0 -13 20 16 20 30 0 6 -5
3 -10 -5 -8 -12 -19 -6 -60 38 -28 29 -50 55 -50 58 0 9 28 34 38 34 6 0 12
-6 15 -12 2 -7 8 -10 12 -5 5 4 0 13 -10 21 -10 7 -15 18 -11 25 6 8 12 9 20
2 9 -8 13 -7 13 4 0 7 -3 14 -6 13 -19 -2 -24 4 -11 12 12 7 10 9 -7 7 -15 -1
-19 -5 -13 -12z"/>
<path d="M1681 1926 c-12 -7 -18 -15 -15 -19 11 -11 26 -8 19 3 -3 5 7 2 24
-8 16 -9 26 -19 23 -22 -4 -3 -25 -26 -46 -52 -21 -27 -47 -48 -57 -48 -11 0
-19 -5 -19 -11 0 -6 7 -8 17 -5 10 4 14 4 10 0 -3 -4 3 -15 15 -25 27 -24 31
-24 18 2 -9 17 -8 25 7 42 10 12 23 27 28 35 6 7 18 21 28 30 22 21 22 29 -6
62 -21 24 -26 26 -46 16z"/>
<path d="M459 1913 c-13 -16 -12 -17 4 -4 9 7 17 15 17 17 0 8 -8 3 -21 -13z"/>
<path d="M938 1903 c7 -3 16 -2 19 1 4 3 -2 6 -13 5 -11 0 -14 -3 -6 -6z"/>
<path d="M1675 1881 c-3 -5 -2 -12 3 -15 5 -3 9 1 9 9 0 17 -3 19 -12 6z"/>
<path d="M416 1868 c3 -4 11 -5 19 -1 21 7 19 12 -4 10 -11 0 -18 -5 -15 -9z"/>
<path d="M1000 1869 c0 -4 -22 -9 -50 -13 -27 -4 -50 -11 -50 -16 0 -6 -10
-10 -22 -10 -13 0 -33 -6 -45 -13 -13 -6 -50 -27 -84 -45 -33 -18 -67 -38 -75
-45 -57 -48 -134 -130 -162 -171 -17 -27 -32 -45 -33 -40 0 5 -7 -12 -15 -38
-8 -27 -18 -48 -23 -48 -5 0 -12 -17 -16 -37 -4 -21 -11 -43 -15 -48 -25 -30
-36 -223 -21 -340 7 -49 16 -92 20 -95 5 -3 12 -21 16 -40 4 -19 13 -42 20
-50 7 -8 15 -27 19 -42 3 -16 11 -28 16 -28 6 0 10 -7 10 -15 0 -9 7 -18 15
-21 8 -4 15 -11 15 -18 0 -14 74 -99 118 -136 48 -40 147 -102 173 -107 16 -3
29 -9 29 -14 0 -4 17 -11 38 -15 20 -4 40 -11 43 -16 8 -13 184 -29 249 -23
114 10 160 18 160 26 0 5 10 9 23 9 22 0 182 77 213 102 51 42 144 139 169
178 17 25 33 47 38 48 4 2 7 9 7 15 0 7 12 35 25 62 14 28 25 60 25 72 0 12 4
23 10 25 5 2 15 48 21 104 13 107 1 286 -21 308 -5 5 -10 18 -10 29 0 21 -50
130 -62 135 -4 2 -8 10 -8 17 0 18 -74 112 -129 162 -65 60 -68 63 -75 56 -3
-4 -6 -2 -6 3 0 5 -26 23 -57 39 -32 17 -59 33 -61 38 -2 4 -11 7 -20 7 -9 0
-29 6 -43 14 -14 7 -43 17 -65 21 -52 10 -304 22 -304 14z m175 -19 c-15 -6
-7 -9 30 -9 54 -1 158 -30 177 -49 7 -7 19 -12 28 -11 10 0 9 3 -5 9 -14 6
-15 9 -5 9 16 1 111 -55 142 -82 9 -9 19 -13 21 -11 3 3 8 0 13 -7 5 -9 1 -11
-14 -7 -12 4 -22 2 -22 -3 0 -5 13 -9 28 -9 16 0 42 -11 57 -24 25 -22 29 -32
28 -78 l-1 -53 7 45 7 45 17 -35 c9 -19 16 -29 17 -21 0 11 4 9 14 -5 8 -11
10 -21 5 -22 -5 -2 2 -16 16 -30 38 -38 66 -102 53 -125 -5 -10 -7 -23 -4 -30
2 -7 5 -5 5 5 1 9 5 19 9 22 4 2 7 -12 5 -32 -2 -32 -1 -34 6 -12 8 22 9 22
11 5 5 -39 9 -71 19 -129 13 -77 6 -192 -14 -222 -8 -13 -15 -27 -15 -31 0 -4
5 -1 10 7 13 20 13 0 -1 -39 -11 -32 -24 -40 -32 -18 -3 7 -6 5 -6 -5 -1 -11
6 -18 17 -19 10 0 12 -3 5 -6 -7 -2 -13 -14 -14 -26 -1 -20 -2 -20 -10 3 -7
21 -8 19 -5 -11 3 -26 -1 -43 -13 -55 -9 -11 -20 -27 -24 -36 -3 -10 -11 -18
-17 -18 -5 0 -10 -9 -10 -19 0 -11 -4 -22 -9 -25 -4 -3 -7 6 -5 19 1 14 -2 27
-6 30 -5 3 -7 -4 -5 -15 5 -27 -9 -64 -35 -90 -11 -11 -20 -18 -20 -16 0 2
-20 -15 -45 -38 -64 -59 -73 -66 -86 -66 -6 0 -23 -8 -37 -19 -21 -14 -36 -17
-66 -12 -41 6 -63 31 -27 31 11 0 23 5 26 10 3 6 27 20 53 31 43 20 57 30 113
81 10 10 25 15 34 12 10 -4 15 0 15 12 0 16 -2 17 -10 4 -8 -13 -10 -12 -10 3
0 23 -7 22 -33 -6 -32 -33 -109 -87 -124 -87 -7 0 -13 -4 -13 -10 0 -5 -12
-12 -27 -16 -16 -4 -38 -13 -51 -21 -13 -8 -38 -15 -55 -15 -30 0 -128 -44
-135 -60 -5 -11 -62 -10 -62 1 0 5 -13 12 -30 16 -16 4 -30 10 -30 15 0 16
-61 30 -82 19 -15 -8 -19 -8 -14 0 4 6 2 11 -5 11 -7 0 -47 16 -88 36 -85 41
-163 100 -206 156 -17 21 -34 44 -40 51 -45 57 -95 158 -95 194 0 11 -6 25
-12 32 -17 16 -18 299 -1 309 6 4 14 23 18 42 4 19 23 65 43 102 36 67 38 96
6 63 -9 -9 -18 -27 -20 -40 -3 -36 -15 -50 -26 -34 -6 10 -7 7 -3 -10 5 -16 4
-21 -4 -17 -6 4 -11 2 -11 -4 0 -6 -5 -8 -12 -4 -7 4 -8 3 -4 -5 4 -6 12 -9
17 -6 14 9 10 -18 -6 -39 -8 -11 -15 -32 -15 -46 0 -14 -4 -30 -9 -35 -14 -14
-15 -205 -2 -238 6 -16 11 -40 11 -55 0 -15 7 -36 15 -46 8 -11 13 -28 10 -38
-4 -11 1 -22 14 -30 12 -7 21 -16 21 -21 0 -4 -4 -6 -9 -2 -5 3 -12 1 -16 -5
-3 -5 3 -10 14 -10 16 0 21 -6 21 -26 0 -14 -4 -23 -10 -19 -5 3 -10 1 -10 -4
0 -24 -16 -8 -35 34 -11 25 -23 45 -27 45 -5 0 -8 8 -8 18 0 10 -4 22 -9 27
-13 15 -31 99 -31 147 0 24 -5 60 -11 81 -6 25 -7 43 -1 50 5 7 13 44 17 84 4
40 17 97 30 128 21 54 45 91 32 50 -7 -20 -7 -20 8 0 15 18 15 20 0 23 -8 2
-13 8 -9 13 3 5 10 7 15 4 5 -4 9 5 9 19 0 28 20 47 21 19 0 -11 3 -13 6 -5 3
7 1 18 -4 25 -10 13 30 60 41 49 3 -3 6 2 6 11 0 37 18 23 21 -17 2 -24 1 -42
-3 -39 -12 7 -9 -12 3 -24 7 -7 9 -20 5 -30 -4 -10 -7 -20 -6 -22 1 -2 -2 -7
-7 -10 -33 -24 -70 -140 -59 -186 11 -45 20 -19 25 78 1 10 6 15 11 12 6 -4
10 6 10 22 0 15 5 35 11 43 8 12 9 9 5 -12 -4 -16 -2 -28 3 -28 5 0 7 -26 4
-60 -7 -75 15 -308 32 -335 15 -25 26 -82 17 -88 -4 -2 -2 -2 5 -1 10 2 38
-59 35 -76 0 -3 11 -20 26 -39 14 -19 20 -31 14 -27 -7 4 -12 2 -12 -3 0 -6 6
-11 14 -11 17 0 26 -22 19 -48 -3 -14 -10 -19 -20 -15 -11 4 -14 2 -11 -8 3
-8 12 -13 21 -13 9 1 15 -2 12 -6 -5 -8 78 -70 92 -70 11 0 98 -45 101 -52 5
-11 22 -10 22 1 0 5 -20 22 -45 39 -24 16 -42 32 -39 35 3 3 -3 8 -14 11 -10
4 -34 29 -53 56 -19 28 -37 50 -41 50 -3 0 -12 16 -18 35 -6 19 -16 35 -21 35
-5 0 -9 6 -9 14 0 8 -6 21 -13 28 -13 13 -42 97 -39 111 1 4 -2 7 -7 7 -5 0
-12 28 -16 63 -4 34 -12 65 -18 69 -7 4 -12 83 -14 213 -1 114 -6 211 -10 217
-4 7 0 9 10 5 13 -5 15 0 10 31 -2 20 -9 49 -15 65 -11 28 5 63 23 51 5 -3 9
0 9 6 0 8 10 10 28 6 24 -6 25 -5 9 8 -16 13 -16 14 0 27 11 9 14 10 9 2 -5
-9 -2 -11 8 -7 9 3 13 10 10 15 -3 5 10 9 28 10 27 0 29 2 13 9 -32 13 5 23
38 11 33 -13 35 -26 5 -28 -12 -1 -26 -9 -31 -18 -5 -10 -16 -14 -30 -10 -17
5 -19 4 -7 -4 12 -9 12 -11 -3 -17 -9 -3 -17 -10 -17 -15 0 -14 27 -11 42 5 8
7 24 17 36 20 12 4 22 11 22 16 0 5 17 14 38 21 20 6 39 15 42 19 3 4 25 12
50 18 25 6 65 16 90 22 49 13 230 7 239 -8 3 -5 24 -12 45 -16 22 -4 49 -14
60 -22 11 -8 26 -14 33 -14 7 0 36 -16 64 -36 28 -19 53 -33 57 -30 10 11 11
56 1 56 -6 0 -8 -4 -4 -9 9 -16 -14 -23 -30 -9 -33 28 -41 33 -50 35 -6 1 -20
5 -32 10 -22 8 -21 9 9 26 29 17 30 17 24 0 -6 -14 -4 -15 5 -6 24 24 -1 33
-38 13 -28 -15 -40 -16 -59 -8 -13 6 -24 14 -24 18 0 4 -12 8 -27 8 -62 3
-138 14 -146 22 -5 4 -25 4 -45 0 -20 -5 -62 -10 -92 -12 -30 -2 -69 -11 -85
-20 -17 -9 -38 -16 -45 -16 -34 2 -51 -3 -45 -12 7 -12 3 -12 -20 -4 -13 6
-14 9 -3 16 9 6 6 7 -9 3 -13 -3 -23 -2 -23 3 0 14 30 23 54 17 16 -5 18 -4 6
4 -12 8 -11 11 5 16 11 4 31 11 45 17 14 6 36 12 50 14 62 9 156 25 165 28 6
3 28 4 50 5 31 0 36 -2 20 -9z m-610 -1113 c-2 -12 -2 -16 1 -9 8 16 24 16 24
-1 0 -7 16 -28 36 -45 33 -29 42 -60 16 -55 -6 2 -9 -4 -5 -13 5 -12 8 -12 20
5 14 21 14 21 39 -4 14 -14 29 -25 35 -25 6 0 7 -4 4 -10 -3 -5 0 -8 7 -5 7 2
24 -5 37 -16 23 -19 23 -20 5 -34 -10 -8 -15 -15 -10 -15 5 0 17 7 26 15 10 9
24 13 35 8 18 -6 18 -7 -1 -14 -17 -7 -16 -8 5 -8 23 -1 24 -2 6 -21 -10 -11
-13 -20 -8 -20 6 0 16 7 23 15 7 8 16 12 21 9 5 -3 9 1 10 8 0 10 2 10 6 0 2
-6 9 -10 14 -6 5 3 9 0 9 -6 0 -7 8 -9 19 -5 26 8 73 -15 66 -32 -3 -10 1 -13
14 -8 20 6 71 -13 71 -27 0 -13 33 -9 65 8 78 43 107 54 142 55 30 0 34 2 18
9 -19 8 -19 9 2 9 13 1 28 -7 34 -17 8 -13 20 -17 38 -15 20 3 16 -1 -16 -17
-23 -11 -60 -21 -82 -22 -22 -1 -38 -5 -34 -11 3 -5 -4 -6 -17 -2 -15 5 -20 4
-16 -4 4 -6 5 -11 1 -11 -3 0 -10 10 -15 23 -7 17 -9 18 -9 4 -1 -10 -7 -17
-13 -16 -7 2 -27 -1 -45 -5 -27 -6 -62 -1 -137 21 -11 3 -16 1 -12 -5 9 -14
-84 15 -104 33 -9 8 -21 15 -26 15 -5 0 -2 -5 6 -10 11 -8 7 -9 -15 -4 -39 9
-54 22 -37 33 11 7 11 9 -2 14 -8 3 -18 1 -22 -5 -5 -7 -2 -8 6 -3 9 5 11 4 6
-4 -6 -9 -20 -5 -54 15 -54 31 -71 44 -56 44 6 0 14 -4 20 -8 5 -5 20 -3 34 5
25 14 25 14 -7 8 -28 -6 -32 -4 -28 12 3 16 -2 19 -31 17 -25 -2 -38 3 -52 21
-11 13 -21 22 -24 20 -3 -3 -13 4 -23 15 -10 11 -13 20 -7 20 6 0 16 -8 21
-17 10 -17 10 -17 11 0 0 9 -6 17 -12 17 -9 0 -8 3 2 10 13 8 12 11 -5 24 -11
8 -22 12 -25 9 -3 -3 1 -8 8 -10 18 -7 15 -20 -6 -25 -15 -4 -18 -1 -15 16 3
16 -3 26 -21 36 -18 9 -23 16 -14 21 7 4 16 5 20 3 4 -3 8 2 8 11 0 9 5 13 10
10 6 -4 8 -16 5 -28z m206 -61 c8 5 10 -2 8 -23 0 -4 7 -10 16 -13 9 -3 16
-10 15 -14 -1 -5 4 -13 12 -17 10 -7 10 -9 0 -9 -7 0 -15 7 -18 15 -4 8 -10
13 -14 10 -13 -8 -40 25 -39 48 0 12 3 16 6 9 2 -6 9 -10 14 -6z m-75 -118
c-18 -10 -39 -2 -31 12 3 4 15 6 26 3 19 -5 19 -7 5 -15z"/>
<path d="M1088 1823 c6 -2 18 -2 25 0 6 3 1 5 -13 5 -14 0 -19 -2 -12 -5z"/>
<path d="M918 1803 c7 -3 16 -2 19 1 4 3 -2 6 -13 5 -11 0 -14 -3 -6 -6z"/>
<path d="M1158 1803 c7 -3 16 -2 19 1 4 3 -2 6 -13 5 -11 0 -14 -3 -6 -6z"/>
<path d="M870 1790 c-8 -5 -10 -10 -5 -10 6 0 17 5 25 10 8 5 11 10 5 10 -5 0
-17 -5 -25 -10z"/>
<path d="M1356 1787 c3 -10 9 -15 12 -12 3 3 0 11 -7 18 -10 9 -11 8 -5 -6z"/>
<path d="M996 1741 c-3 -4 -24 -11 -47 -15 -47 -7 -130 -43 -141 -60 -4 -6 -8
-7 -8 -1 0 6 -3 6 -8 0 -4 -6 -19 -18 -35 -28 -22 -14 -32 -15 -48 -6 -12 6
-34 9 -50 7 -17 -3 -29 0 -29 6 0 12 -20 -14 -20 -26 0 -5 230 -8 511 -8 408
0 509 -3 501 -12 -13 -17 -15 -255 -2 -263 12 -8 13 -125 2 -125 -5 0 -12 -45
-15 -101 -4 -56 -10 -106 -15 -113 -5 -6 -13 -29 -17 -51 -4 -22 -16 -60 -27
-85 -30 -66 -99 -180 -109 -180 -5 0 -9 -4 -9 -10 0 -15 -107 -116 -145 -137
-12 -7 -14 -13 -6 -17 6 -4 11 -2 11 3 0 6 5 11 11 11 9 0 81 34 139 65 63 35
158 125 152 143 -2 7 2 11 10 10 8 -2 13 6 12 18 0 14 4 20 13 17 7 -3 17 6
22 20 5 14 14 28 19 31 5 3 13 22 16 41 4 19 11 35 15 35 15 0 35 132 34 225
-2 98 -20 215 -34 215 -5 0 -9 8 -9 18 0 9 -12 35 -25 57 -14 22 -25 49 -25
60 0 17 -2 17 -10 5 -8 -13 -10 -12 -10 3 0 37 28 14 61 -50 19 -38 37 -69 40
-71 4 -2 4 -12 1 -24 -3 -14 -1 -19 6 -14 7 4 13 -16 17 -59 4 -36 10 -65 14
-65 3 0 6 -36 7 -80 0 -44 -2 -80 -6 -80 -4 0 -10 -25 -13 -56 -3 -30 -11 -62
-17 -69 -7 -8 -9 -19 -5 -25 3 -5 1 -10 -4 -10 -6 0 -11 -9 -11 -19 0 -11 -7
-26 -15 -35 -8 -8 -15 -17 -15 -20 0 -4 -20 -34 -45 -68 -43 -59 -44 -63 -25
-70 12 -4 19 -12 15 -17 -11 -19 11 -18 30 1 20 20 20 20 -1 14 -27 -8 -39 17
-19 38 8 8 15 21 15 28 0 10 3 9 11 -2 9 -13 10 -12 5 2 -3 11 2 22 15 28 11
6 17 15 14 21 -4 5 1 16 9 25 9 8 16 24 16 35 0 10 4 19 9 19 11 0 24 33 27
70 5 43 16 95 24 105 10 13 6 154 -4 178 -5 10 -6 35 -3 55 4 22 3 31 -2 23
-6 -9 -11 -10 -15 -2 -4 6 -4 15 -1 21 3 5 -5 33 -19 61 -15 28 -24 55 -20 60
3 5 -1 9 -9 9 -7 0 -21 16 -30 35 -9 19 -21 35 -27 35 -5 0 -10 19 -10 43 0
24 -3 47 -7 51 -5 4 -8 11 -8 15 0 4 -8 15 -17 25 -20 20 -25 7 -5 -13 10 -11
4 -13 -36 -8 -26 2 -50 0 -53 -5 -3 -5 -16 -2 -30 6 -27 18 -59 23 -34 5 13
-9 13 -10 0 -6 -8 2 -15 10 -15 18 0 20 -70 55 -138 70 -32 6 -60 16 -63 20
-7 12 -231 12 -238 0z m178 -7 c33 -5 44 -10 34 -16 -8 -6 2 -8 30 -5 23 3 40
1 37 -3 -3 -4 5 -6 17 -2 15 4 19 2 13 -7 -6 -10 -2 -11 15 -6 15 5 20 4 16
-4 -4 -7 1 -11 13 -11 12 0 21 -3 21 -8 0 -4 -21 -6 -47 -5 l-48 1 45 -7 c32
-5 48 -3 56 6 16 18 25 16 17 -4 -5 -13 -2 -15 11 -10 10 4 16 3 14 -3 -2 -7
-114 -11 -320 -13 -174 -1 -314 1 -311 6 2 4 9 5 14 2 5 -4 9 -1 9 5 0 7 8 9
20 5 15 -5 18 -3 14 9 -5 13 -2 14 24 5 17 -6 45 -9 64 -6 30 3 29 4 -9 5 -48
2 -60 22 -14 22 16 0 31 5 33 12 3 8 20 11 44 10 30 -2 36 0 24 9 -11 7 6 9
65 5 50 -3 69 -2 50 3 -38 11 -12 13 49 5z m480 -338 c-3 -7 2 -16 12 -20 13
-5 15 -15 11 -49 -3 -23 -3 -34 0 -24 2 9 9 17 15 17 5 0 8 -7 5 -15 -4 -8 -2
-17 3 -20 15 -9 12 -28 -3 -22 -7 3 -13 -3 -13 -13 0 -14 4 -16 16 -10 14 8
16 -3 16 -90 0 -54 -2 -97 -5 -95 -4 2 -5 -19 -4 -46 0 -27 -2 -47 -6 -44 -4
2 -13 -18 -20 -46 -11 -44 -16 -49 -35 -44 -15 5 -17 4 -7 -3 9 -7 11 -17 5
-33 -4 -13 -8 -28 -9 -34 0 -5 -5 -10 -12 -10 -11 0 -37 -31 -59 -70 -6 -10
-17 -21 -25 -24 -12 -3 -12 -1 1 15 14 18 14 18 -3 5 -10 -8 -16 -19 -14 -25
4 -11 -16 -36 -29 -36 -5 0 -3 5 4 12 7 7 12 17 12 22 -1 6 -9 0 -20 -13 -11
-12 -17 -27 -14 -32 3 -5 -2 -9 -10 -9 -8 0 -14 -6 -12 -12 1 -7 1 -10 -1 -6
-3 4 -11 2 -18 -5 -56 -49 -63 -42 -10 10 19 19 35 37 35 41 0 4 14 22 30 40
16 19 39 55 51 80 13 26 26 49 30 52 5 3 10 21 12 40 6 43 24 90 35 90 5 0 7
14 4 30 -2 17 0 30 6 30 10 0 17 186 13 324 -2 45 1 66 8 62 5 -4 8 -13 5 -20z"/>
<path d="M960 1700 c0 -5 5 -10 11 -10 5 0 7 5 4 10 -3 6 -8 10 -11 10 -2 0
-4 -4 -4 -10z"/>
<path d="M1028 1693 c6 -2 18 -2 25 0 6 3 1 5 -13 5 -14 0 -19 -2 -12 -5z"/>
<path d="M1198 1693 c7 -3 16 -2 19 1 4 3 -2 6 -13 5 -11 0 -14 -3 -6 -6z"/>
<path d="M1652 1175 c-2 -47 13 -80 23 -53 4 9 5 25 2 35 -4 14 -5 12 -7 -7
-2 -17 -5 -10 -10 20 l-7 45 -1 -40z"/>
<path d="M1690 1145 c0 -8 4 -15 10 -15 5 0 7 7 4 15 -4 8 -8 15 -10 15 -2 0
-4 -7 -4 -15z"/>
<path d="M1590 843 c0 -10 4 -14 8 -8 4 6 11 13 16 18 5 4 2 7 -7 7 -10 0 -17
-8 -17 -17z"/>
<path d="M1601 818 c-14 -23 -14 -23 8 -4 22 20 25 26 13 26 -4 0 -13 -10 -21
-22z"/>
<path d="M1571 794 c0 -11 3 -14 6 -6 3 7 2 16 -1 19 -3 4 -6 -2 -5 -13z"/>
<path d="M1545 760 c-3 -5 -1 -10 4 -10 6 0 11 5 11 10 0 6 -2 10 -4 10 -3 0
-8 -4 -11 -10z"/>
<path d="M1490 1721 c0 -5 12 -8 26 -8 18 0 22 2 13 8 -18 11 -39 11 -39 0z"/>
<path d="M543 1546 c-7 -8 -8 -18 -2 -27 5 -8 9 -12 10 -9 0 3 2 15 5 28 4 25
3 26 -13 8z"/>
<path d="M1117 1513 c-4 -3 -7 -11 -7 -17 0 -6 5 -5 12 2 6 6 9 14 7 17 -3 3
-9 2 -12 -2z"/>
<path d="M1511 1504 c0 -11 3 -14 6 -6 3 7 2 16 -1 19 -3 4 -6 -2 -5 -13z"/>
<path d="M1147 1493 c-4 -3 -7 -11 -7 -17 0 -6 5 -5 12 2 6 6 9 14 7 17 -3 3
-9 2 -12 -2z"/>
<path d="M740 1349 l0 -139 158 0 157 0 -1 138 -1 137 -156 1 -157 2 0 -139z
m284 109 c2 -7 7 -61 10 -120 l6 -108 -120 0 c-89 0 -120 3 -121 13 0 10 -2
10 -6 0 -15 -38 -23 0 -23 105 l0 118 125 3 c96 1 126 -1 129 -11z"/>
<path d="M1180 1350 l0 -140 158 0 157 0 -3 139 -3 139 -155 1 -154 2 0 -141z
m288 106 c3 -3 0 -6 -7 -6 -7 0 -10 -3 -7 -8 2 -4 6 -52 8 -107 l3 -100 -127
-3 -128 -3 0 110 c0 85 3 112 14 118 16 9 235 8 244 -1z"/>
<path d="M1700 1480 c0 -5 5 -10 10 -10 6 0 10 5 10 10 0 6 -4 10 -10 10 -5 0
-10 -4 -10 -10z"/>
<path d="M1731 1445 c1 -19 18 -51 18 -35 0 8 -4 22 -9 30 -5 8 -9 11 -9 5z"/>
<path d="M1760 1433 c0 -4 5 -15 10 -23 8 -13 10 -13 10 2 0 9 -4 20 -10 23
-5 3 -10 3 -10 -2z"/>
<path d="M442 1330 c0 -14 2 -19 5 -12 2 6 2 18 0 25 -3 6 -5 1 -5 -13z"/>
<path d="M437 1283 c3 -7 6 -13 8 -13 2 0 5 6 8 13 3 8 -1 14 -8 14 -7 0 -11
-6 -8 -14z"/>
<path d="M499 1210 c-4 -124 2 -195 23 -265 12 -38 25 -72 28 -75 4 -3 11 -16
15 -30 17 -54 125 -177 145 -165 10 6 9 11 -6 23 -18 13 -18 14 4 7 12 -3 22
-3 22 2 0 5 -10 9 -22 10 -11 1 -25 8 -31 15 -6 9 -7 7 -3 -7 6 -20 6 -20 -9
-1 -18 23 -19 33 -5 41 6 3 10 11 10 16 0 6 -6 7 -12 2 -23 -14 -37 -12 -31 5
4 10 2 13 -5 8 -8 -5 -12 0 -12 14 0 12 -4 19 -9 16 -15 -10 -22 24 -10 47 9
18 9 20 -1 10 -18 -16 -39 11 -40 50 0 20 -4 26 -12 21 -10 -6 -10 -4 0 7 6 7
12 18 12 24 0 5 -5 3 -10 -5 -10 -15 -14 15 -12 85 1 29 1 29 -7 5 -5 -17 -8
3 -8 60 -1 58 2 79 8 65 6 -14 7 -10 3 15 -12 67 -23 67 -25 0z"/>
<path d="M420 1209 c0 -5 5 -7 10 -4 6 3 10 8 10 11 0 2 -4 4 -10 4 -5 0 -10
-5 -10 -11z"/>
<path d="M551 1194 c0 -11 3 -14 6 -6 3 7 2 16 -1 19 -3 4 -6 -2 -5 -13z"/>
<path d="M1823 1170 c0 -25 2 -35 4 -22 2 12 2 32 0 45 -2 12 -4 2 -4 -23z"/>
<path d="M720 1180 c0 -5 5 -10 11 -10 5 0 7 5 4 10 -3 6 -8 10 -11 10 -2 0
-4 -4 -4 -10z"/>
<path d="M433 1130 c0 -25 2 -35 4 -22 2 12 2 32 0 45 -2 12 -4 2 -4 -23z"/>
<path d="M532 1135 c0 -16 2 -22 5 -12 2 9 2 23 0 30 -3 6 -5 -1 -5 -18z"/>
<path d="M1108 1153 c7 -3 16 -2 19 1 4 3 -2 6 -13 5 -11 0 -14 -3 -6 -6z"/>
<path d="M1040 1120 c0 -5 5 -10 11 -10 5 0 7 5 4 10 -3 6 -8 10 -11 10 -2 0
-4 -4 -4 -10z"/>
<path d="M561 1094 c0 -11 3 -14 6 -6 3 7 2 16 -1 19 -3 4 -6 -2 -5 -13z"/>
<path d="M1090 1099 c0 -5 5 -7 10 -4 6 3 10 8 10 11 0 2 -4 4 -10 4 -5 0 -10
-5 -10 -11z"/>
<path d="M1822 1075 c0 -16 2 -22 5 -12 2 9 2 23 0 30 -3 6 -5 -1 -5 -18z"/>
<path d="M1140 1081 c0 -7 -6 -11 -13 -8 -8 3 -14 0 -14 -7 0 -18 25 -16 32 2
3 8 3 17 0 20 -3 3 -5 0 -5 -7z"/>
<path d="M546 1055 c-9 -26 -7 -32 5 -12 6 10 9 21 6 23 -2 3 -7 -2 -11 -11z"/>
<path d="M754 1053 c4 -10 15 -45 24 -78 9 -33 19 -62 23 -65 3 -3 12 -23 19
-44 7 -22 17 -45 22 -50 40 -49 48 -60 53 -75 5 -14 127 -116 148 -123 5 -2 8
98 8 222 l0 225 -152 3 c-142 2 -151 1 -145 -15z m266 -10 c6 -104 3 -323 -5
-323 -6 0 -6 -3 0 -8 14 -9 17 -52 4 -52 -5 0 -9 4 -9 8 0 4 -14 16 -30 26
-17 10 -27 22 -24 28 5 8 1 9 -10 5 -16 -6 -16 -5 -1 15 8 13 15 27 15 33 -1
5 -6 0 -13 -12 -11 -20 -13 -21 -33 -4 -26 21 -44 53 -44 80 0 12 -6 21 -12
21 -16 0 -68 125 -68 163 l0 27 115 0 c63 0 115 -3 115 -7z"/>
<path d="M837 957 c-11 -29 -9 -43 4 -30 6 6 9 19 7 29 -3 18 -4 18 -11 1z"/>
<path d="M862 940 c0 -14 2 -19 5 -12 2 6 2 18 0 25 -3 6 -5 1 -5 -13z"/>
<path d="M927 793 c3 -7 6 -13 8 -13 2 0 5 6 8 13 3 8 -1 14 -8 14 -7 0 -11
-6 -8 -14z"/>
<path d="M1180 839 l0 -231 29 19 c72 45 191 176 191 210 0 7 4 13 9 13 4 0
14 20 21 45 7 25 16 48 21 50 4 3 11 27 15 53 3 26 11 53 16 60 8 9 -22 12
-146 12 l-156 0 0 -231z m275 191 c0 -8 -5 -14 -11 -13 -6 1 -9 -10 -6 -29 3
-21 1 -29 -7 -24 -7 5 -9 1 -5 -8 3 -9 1 -16 -5 -16 -6 0 -11 -9 -11 -21 0
-28 -19 -61 -31 -54 -5 4 -9 1 -9 -4 0 -6 5 -11 11 -11 5 0 7 -5 4 -10 -4 -6
-10 -8 -15 -5 -5 3 -10 -5 -12 -17 -2 -13 -9 -22 -16 -20 -8 1 -11 -2 -7 -8 3
-5 1 -15 -5 -22 -6 -7 -18 -22 -28 -34 -21 -25 -86 -74 -98 -74 -5 0 -3 4 4 8
8 6 10 16 5 30 -4 11 -7 95 -5 187 l3 166 122 -3 c101 -3 122 -6 122 -18z"/>
<path d="M1367 950 c-3 -11 -1 -20 4 -20 5 0 9 9 9 20 0 11 -2 20 -4 20 -2 0
-6 -9 -9 -20z"/>
<path d="M1301 793 c-1 -6 -4 -20 -7 -30 -5 -17 -5 -17 6 0 6 10 9 23 6 30 -3
9 -5 9 -5 0z"/>
<path d="M1552 1030 c0 -14 2 -19 5 -12 2 6 2 18 0 25 -3 6 -5 1 -5 -13z"/>
<path d="M437 978 c-4 -12 -4 -24 -2 -27 3 -2 5 2 5 10 0 11 2 11 10 -1 8 -12
10 -11 10 7 0 30 -16 38 -23 11z"/>
<path d="M1523 965 c0 -8 4 -12 9 -9 5 3 6 10 3 15 -9 13 -12 11 -12 -6z"/>
<path d="M731 954 c0 -11 3 -14 6 -6 3 7 2 16 -1 19 -3 4 -6 -2 -5 -13z"/>
<path d="M1114 860 c0 -63 1 -89 3 -57 2 31 2 83 0 115 -2 31 -3 5 -3 -58z"/>
<path d="M1772 945 c0 -16 2 -22 5 -12 2 9 2 23 0 30 -3 6 -5 -1 -5 -18z"/>
<path d="M441 924 c0 -11 3 -14 6 -6 3 7 2 16 -1 19 -3 4 -6 -2 -5 -13z"/>
<path d="M450 890 c0 -5 7 -7 15 -4 8 4 15 8 15 10 0 2 -7 4 -15 4 -8 0 -15
-4 -15 -10z"/>
<path d="M471 860 c0 -8 4 -22 9 -30 12 -18 12 -2 0 25 -6 13 -9 15 -9 5z"/>
<path d="M651 854 c0 -11 3 -14 6 -6 3 7 2 16 -1 19 -3 4 -6 -2 -5 -13z"/>
<path d="M1733 826 c1 -11 9 -21 17 -23 10 -3 11 -2 4 4 -6 4 -14 15 -17 23
-5 11 -6 9 -4 -4z"/>
<path d="M1445 800 c-3 -5 -2 -18 4 -27 7 -14 9 -12 8 10 -2 30 -3 31 -12 17z"/>
<path d="M810 770 c0 -5 5 -10 10 -10 6 0 10 5 10 10 0 6 -4 10 -10 10 -5 0
-10 -4 -10 -10z"/>
<path d="M1112 680 c0 -19 2 -27 5 -17 2 9 2 25 0 35 -3 9 -5 1 -5 -18z"/>
<path d="M920 630 c0 -5 5 -10 10 -10 6 0 10 5 10 10 0 6 -4 10 -10 10 -5 0
-10 -4 -10 -10z"/>
<path d="M1110 611 c0 -6 4 -13 10 -16 6 -3 7 1 4 9 -7 18 -14 21 -14 7z"/>
<path d="M1590 611 c0 -8 -7 -11 -17 -6 -15 5 -16 4 -5 -6 9 -10 15 -10 24 -1
6 6 9 15 5 19 -4 3 -7 1 -7 -6z"/>
<path d="M992 591 c-10 -6 -10 -10 3 -21 8 -7 18 -10 22 -6 3 3 1 6 -6 6 -8 0
-11 7 -7 15 6 17 6 18 -12 6z"/>
<path d="M1020 590 c0 -5 5 -10 11 -10 5 0 7 5 4 10 -3 6 -8 10 -11 10 -2 0
-4 -4 -4 -10z"/>
<path d="M1200 590 c-18 -12 -2 -12 25 0 13 6 15 9 5 9 -8 0 -22 -4 -30 -9z"/>
<path d="M1530 591 c0 -5 7 -11 14 -14 10 -4 13 -1 9 9 -6 15 -23 19 -23 5z"/>
<path d="M1511 552 c-1 -20 2 -21 19 -12 23 12 27 25 6 17 -8 -3 -17 -1 -20 6
-2 7 -5 2 -5 -11z"/>
<path d="M1020 550 c-9 -6 -10 -10 -3 -10 6 0 15 5 18 10 8 12 4 12 -15 0z"/>
<path d="M1221 551 c-8 -5 -9 -11 -3 -15 5 -3 12 1 16 9 6 17 6 18 -13 6z"/>
<path d="M1400 510 c0 -5 5 -10 10 -10 6 0 10 5 10 10 0 6 -4 10 -10 10 -5 0
-10 -4 -10 -10z"/>
<path d="M628 643 c7 -3 16 -2 19 1 4 3 -2 6 -13 5 -11 0 -14 -3 -6 -6z"/>
<path d="M935 469 l-30 -8 33 3 c18 1 35 -1 38 -6 3 -4 0 -8 -5 -8 -6 0 -11
-4 -11 -10 0 -19 26 -10 27 9 2 24 -13 30 -52 20z"/>
<path d="M1255 450 c3 -5 11 -10 16 -10 6 0 7 5 4 10 -3 6 -11 10 -16 10 -6 0
-7 -4 -4 -10z"/>
<path d="M1220 440 c0 -5 5 -10 11 -10 5 0 7 5 4 10 -3 6 -8 10 -11 10 -2 0
-4 -4 -4 -10z"/>
<path d="M1308 443 c6 -2 18 -2 25 0 6 3 1 5 -13 5 -14 0 -19 -2 -12 -5z"/>
<path d="M1760 1872 c0 -6 5 -14 10 -17 6 -3 10 -16 10 -27 0 -21 0 -21 21 -2
15 13 17 20 7 23 -7 2 -21 10 -30 19 -11 9 -18 10 -18 4z"/>
<path d="M1639 1858 c0 -2 -2 -13 -5 -25 -4 -22 -3 -22 16 -6 24 21 25 24 3
16 -11 -4 -14 -3 -9 5 4 7 5 12 2 12 -3 0 -6 -1 -7 -2z"/>
<path d="M550 1842 c0 -4 12 -8 28 -9 23 -1 24 -1 7 7 -26 11 -35 12 -35 2z"/>
<path d="M720 1840 c0 -5 5 -10 10 -10 6 0 10 5 10 10 0 6 -4 10 -10 10 -5 0
-10 -4 -10 -10z"/>
<path d="M1589 1803 c-12 -16 -12 -17 2 -6 9 7 20 9 24 5 5 -4 5 -1 1 6 -9 16
-11 15 -27 -5z"/>
<path d="M1824 1803 c5 -15 -7 -31 -53 -70 l-60 -51 21 -18 c18 -16 20 -17 15
-2 -6 18 86 105 108 100 8 -1 16 2 20 8 3 5 1 10 -4 10 -6 0 -20 9 -32 21 -20
20 -21 20 -15 2z"/>
<path d="M1736 1801 c-17 -6 -17 -8 -4 -14 10 -3 19 0 22 9 3 8 4 14 3 13 -1
0 -11 -4 -21 -8z"/>
<path d="M382 1783 c-6 -2 -10 -8 -7 -13 3 -5 -4 -11 -15 -15 -11 -4 -18 -11
-15 -16 4 -5 1 -9 -6 -9 -7 0 -10 -3 -7 -6 3 -3 15 0 26 7 22 14 18 17 99 -55
30 -27 46 -55 23 -41 -5 3 -10 1 -10 -4 0 -18 19 -12 30 10 7 11 18 18 25 15
10 -3 12 0 8 11 -5 12 -3 14 7 8 9 -5 11 -4 6 3 -5 9 -13 9 -26 2 -26 -14 -24
-15 -72 30 -24 22 -47 40 -52 40 -4 0 -6 9 -3 20 3 11 4 20 4 19 -1 0 -8 -3
-15 -6z"/>
<path d="M303 1745 c0 -8 4 -15 9 -15 4 0 8 7 8 15 0 8 -4 15 -8 15 -5 0 -9
-7 -9 -15z"/>
<path d="M482 1740 c7 -11 19 -22 28 -25 8 -4 4 5 -9 19 -29 31 -36 33 -19 6z"/>
<path d="M1900 1756 c0 -2 7 -6 15 -10 8 -3 15 -1 15 4 0 6 -7 10 -15 10 -8 0
-15 -2 -15 -4z"/>
<path d="M1727 1739 c7 -7 15 -10 18 -7 3 3 -2 9 -12 12 -14 6 -15 5 -6 -5z"/>
<path d="M1817 1715 c-22 -16 -21 -21 2 -21 11 0 17 5 14 13 -4 9 0 11 11 7 9
-3 16 -4 16 -1 0 12 -27 14 -43 2z"/>
<path d="M1690 1709 c0 -5 5 -7 10 -4 6 3 10 8 10 11 0 2 -4 4 -10 4 -5 0 -10
-5 -10 -11z"/>
<path d="M305 1700 c-5 -9 -4 -11 3 -6 19 11 14 -2 -8 -24 -11 -11 -20 -33
-20 -48 0 -58 49 -70 94 -23 16 16 35 27 42 24 17 -6 18 -55 2 -71 -16 -16
-55 -15 -61 1 -4 7 -6 8 -6 1 -1 -7 11 -19 25 -28 l25 -17 -23 -18 c-13 -10
-38 -22 -55 -25 -18 -4 -33 -12 -33 -17 0 -19 98 10 105 32 4 11 11 19 18 19
8 0 8 3 0 11 -7 7 -2 19 18 39 29 28 40 58 17 44 -7 -5 -9 -2 -5 8 8 21 -11
38 -43 38 -16 0 -34 -11 -50 -30 -30 -37 -48 -38 -56 -5 -10 41 45 89 59 53 3
-8 6 -6 6 5 1 9 -4 17 -10 17 -7 0 -17 7 -24 17 -9 13 -14 13 -20 3z"/>
<path d="M1954 1695 c-3 -8 -4 -20 -2 -27 3 -7 7 -1 10 15 6 29 1 36 -8 12z"/>
<path d="M1850 1680 c-13 -8 -13 -10 2 -10 9 0 20 5 23 10 8 13 -5 13 -25 0z"/>
<path d="M1670 1676 c0 -2 8 -10 18 -17 15 -13 16 -12 3 4 -13 16 -21 21 -21
13z"/>
<path d="M1885 1643 c-32 -8 -65 -53 -65 -88 0 -35 36 -85 62 -85 8 0 27 6 40
13 21 11 22 14 11 37 -12 23 -13 24 -13 4 0 -14 -8 -24 -21 -27 -27 -7 -49 1
-49 19 0 8 -4 14 -8 14 -4 0 -8 9 -9 20 -1 11 2 20 8 20 5 0 9 6 9 14 0 16 42
46 66 46 9 0 29 -8 45 -17 32 -19 41 -69 14 -79 -19 -8 -20 -24 -1 -24 8 0 16
7 20 15 3 8 12 15 21 15 8 0 15 5 15 11 0 5 -5 7 -10 4 -6 -3 -13 2 -16 12
-14 44 -29 63 -57 73 -16 5 -33 9 -36 9 -3 -1 -15 -3 -26 -6z"/>
<path d="M506 1603 c-6 -14 -5 -15 5 -6 7 7 10 15 7 18 -3 3 -9 -2 -12 -12z"/>
<path d="M1870 1549 c0 -5 5 -7 10 -4 6 3 10 8 10 11 0 2 -4 4 -10 4 -5 0 -10
-5 -10 -11z"/>
<path d="M234 1532 c-12 -8 -54 -88 -54 -103 0 -6 5 -7 10 -4 6 4 8 10 5 15
-5 9 22 -1 107 -37 23 -10 34 -21 31 -30 -3 -7 -1 -13 5 -13 6 0 13 14 17 30
4 18 13 30 23 31 11 0 13 2 4 6 -7 3 -19 0 -26 -6 -9 -8 -26 -6 -62 7 -79 27
-88 35 -75 61 16 29 59 28 70 -1 8 -21 10 -21 16 -5 14 34 -40 71 -71 49z"/>
<path d="M2030 1476 c0 -9 -7 -16 -15 -16 -8 0 -15 -4 -15 -9 0 -13 -104 -31
-111 -19 -4 7 -9 7 -13 0 -3 -6 -2 -13 3 -16 5 -3 12 -28 16 -55 7 -49 28 -74
39 -45 3 8 1 14 -4 14 -6 0 -10 9 -10 20 0 11 -4 20 -10 20 -20 0 -9 25 17 38
38 17 43 15 43 -13 0 -14 5 -25 11 -25 8 0 7 -5 -1 -15 -19 -23 -5 -30 22 -11
12 9 17 16 11 16 -10 0 -37 59 -31 66 8 7 55 7 66 1 13 -9 17 -63 5 -70 -5 -2
-2 -2 5 0 8 1 20 3 29 3 13 0 13 2 0 15 -8 7 -18 31 -22 51 -7 40 -35 79 -35
50z"/>
<path d="M208 1393 c7 -3 16 -2 19 1 4 3 -2 6 -13 5 -11 0 -14 -3 -6 -6z"/>
<path d="M159 1377 c-1 -3 -7 -57 -13 -107 -2 -25 -2 -37 1 -27 4 15 12 17 44
13 21 -3 57 -9 80 -12 29 -4 39 -10 35 -20 -3 -8 -1 -14 4 -14 6 0 10 11 10
25 0 22 -4 25 -33 25 -19 0 -36 2 -39 5 -10 10 5 65 18 65 8 0 14 5 14 10 0 6
-6 10 -14 10 -8 0 -23 3 -33 6 -12 4 -14 3 -5 -3 7 -5 11 -24 9 -44 -2 -31 -5
-34 -32 -31 -39 5 -39 5 -31 47 5 23 12 35 23 35 21 0 8 13 -17 17 -11 2 -20
2 -21 0z"/>
<path d="M300 1339 c0 -5 5 -7 10 -4 6 4 11 -9 11 -32 2 -30 3 -32 6 -10 2 15
9 27 14 27 5 0 9 7 9 15 0 9 -9 15 -25 15 -14 0 -25 -5 -25 -11z"/>
<path d="M2000 1300 c0 -5 -8 -10 -18 -10 -50 0 -74 -117 -32 -153 12 -10 25
-15 30 -12 5 3 11 1 15 -4 9 -15 67 7 93 36 12 13 22 34 22 46 0 35 -11 67
-21 61 -5 -3 -9 -1 -9 5 0 9 -55 41 -72 41 -4 0 -8 -4 -8 -10z m79 -50 c12
-36 -2 -86 -29 -100 -34 -18 -77 -12 -94 15 -21 32 -20 51 5 86 17 24 27 29
64 29 39 0 44 -3 54 -30z"/>
<path d="M2020 1226 c0 -2 7 -7 16 -10 8 -3 12 -2 9 4 -6 10 -25 14 -25 6z"/>
<path d="M104 1229 c-3 -6 -2 -15 3 -20 5 -5 9 -1 9 11 0 23 -2 24 -12 9z"/>
<path d="M139 1182 c2 -20 6 -31 8 -24 5 14 50 17 55 3 2 -5 19 -12 38 -15
l35 -7 -40 20 c-22 11 -44 20 -49 21 -6 0 -19 9 -31 20 l-21 20 5 -38z"/>
<path d="M274 1125 c-4 -8 -14 -15 -23 -15 -9 0 -29 -7 -45 -15 -35 -18 -53
-19 -59 -2 -3 6 -6 -6 -6 -28 0 -32 2 -36 10 -23 5 10 30 23 54 29 25 6 45 15
45 20 0 4 16 11 35 15 29 5 33 9 24 20 -15 18 -28 18 -35 -1z"/>
<path d="M2106 1122 c-3 -5 1 -9 9 -9 8 0 15 4 15 9 0 4 -4 8 -9 8 -6 0 -12
-4 -15 -8z"/>
<path d="M95 1100 c-3 -6 1 -7 9 -4 18 7 21 14 7 14 -6 0 -13 -4 -16 -10z"/>
<path d="M1928 1072 c-3 -34 -1 -40 8 -28 11 15 25 15 117 0 20 -3 37 -7 37
-9 0 -19 -26 -65 -37 -65 -20 0 -40 22 -45 48 l-3 22 -42 -22 c-31 -16 -43
-28 -43 -44 0 -22 1 -21 29 7 32 32 51 37 51 14 0 -8 11 -22 24 -30 19 -13 28
-14 50 -4 14 7 26 19 27 28 0 9 2 36 4 61 2 25 1 37 -2 27 -3 -11 -11 -16 -20
-13 -8 3 -41 6 -74 6 -53 0 -61 3 -68 23 -7 19 -9 15 -13 -21z"/>
<path d="M258 1063 c7 -3 16 -2 19 1 4 3 -2 6 -13 5 -11 0 -14 -3 -6 -6z"/>
<path d="M2130 1060 c0 -5 5 -10 11 -10 5 0 7 5 4 10 -3 6 -8 10 -11 10 -2 0
-4 -4 -4 -10z"/>
<path d="M280 1050 c-9 -6 -10 -10 -3 -10 6 0 15 5 18 10 8 12 4 12 -15 0z"/>
<path d="M311 1028 c-1 -19 -15 -23 -98 -33 -43 -5 -54 -2 -63 12 -10 16 -11
15 -6 -7 3 -14 6 -33 6 -42 0 -10 5 -18 10 -18 6 0 10 6 10 14 0 9 15 16 43
19 23 3 57 9 75 12 21 5 32 3 32 -4 0 -6 5 -11 11 -11 8 0 8 4 1 13 -5 6 -12
23 -15 37 -2 14 -5 17 -6 8z"/>
<path d="M111 954 c0 -11 3 -14 6 -6 3 7 2 16 -1 19 -3 4 -6 -2 -5 -13z"/>
<path d="M1880 960 c0 -5 5 -10 11 -10 5 0 7 5 4 10 -3 6 -8 10 -11 10 -2 0
-4 -4 -4 -10z"/>
<path d="M296 908 c-9 -12 -16 -28 -16 -34 0 -7 -7 -14 -15 -18 -8 -3 -15 -12
-15 -20 0 -8 -7 -19 -15 -23 -8 -5 -17 -24 -21 -43 l-6 -35 19 25 c14 19 29
26 63 28 24 2 48 8 52 15 5 9 10 9 20 -1 19 -19 30 -14 18 8 -6 11 -8 25 -5
30 3 6 -1 10 -9 10 -9 0 -13 -6 -10 -14 4 -11 -5 -17 -30 -22 -20 -3 -36 -10
-36 -15 0 -5 -9 -9 -20 -9 -11 0 -20 2 -20 5 0 2 21 34 46 70 31 45 41 65 30
65 -8 0 -22 -10 -30 -22z"/>
<path d="M1917 918 c-39 -30 -44 -128 -6 -128 9 0 25 -7 33 -16 15 -14 16 -14
16 4 0 11 3 29 7 39 7 17 6 17 -11 1 -25 -26 -58 -4 -54 37 2 24 11 34 42 49
28 14 41 16 44 8 2 -7 12 -12 22 -12 21 0 58 -62 40 -68 -5 -2 -10 -12 -10
-22 0 -19 -19 -30 -53 -30 -34 0 -7 -17 38 -24 23 -3 32 -2 21 2 -18 8 -18 9
0 27 29 29 25 88 -9 119 -31 29 -91 35 -120 14z"/>
<path d="M240 904 c-15 -9 -39 -12 -60 -10 -19 3 -29 3 -22 0 6 -3 12 -14 12
-24 0 -10 7 -20 14 -23 9 -4 13 -1 10 7 -5 12 21 29 64 41 12 4 22 11 22 16 0
12 -9 10 -40 -7z"/>
<path d="M373 885 c0 -8 4 -12 9 -9 5 3 6 10 3 15 -9 13 -12 11 -12 -6z"/>
<path d="M335 879 c-4 -6 -5 -12 -2 -15 2 -3 7 2 10 11 7 17 1 20 -8 4z"/>
<path d="M1960 861 c0 -6 4 -13 10 -16 6 -3 7 1 4 9 -7 18 -14 21 -14 7z"/>
<path d="M1997 856 c-4 -10 -3 -15 3 -11 6 3 10 -2 11 -12 0 -10 3 -13 5 -6 3
7 1 20 -4 29 -8 15 -9 15 -15 0z"/>
<path d="M157 813 c-11 -11 -8 -20 7 -20 8 0 12 6 9 14 -6 15 -7 15 -16 6z"/>
<path d="M2075 790 c-3 -5 -1 -10 4 -10 6 0 11 5 11 10 0 6 -2 10 -4 10 -3 0
-8 -4 -11 -10z"/>
<path d="M1846 769 c-15 -47 -15 -51 -1 -39 9 8 22 6 46 -7 19 -10 36 -21 39
-24 3 -3 13 -8 23 -12 9 -3 17 -13 17 -22 0 -23 16 -18 28 10 14 30 16 46 4
27 -11 -16 -133 47 -142 74 -6 16 -8 15 -14 -7z"/>
<path d="M350 743 c-8 -4 -21 -12 -28 -20 -7 -7 -20 -13 -28 -13 -8 0 -14 -4
-14 -10 0 -5 -9 -10 -19 -10 -23 0 -18 -35 6 -45 13 -4 14 -3 3 10 -10 12 -8
16 14 26 14 7 26 15 26 19 0 3 18 14 39 24 39 17 40 17 61 -4 26 -26 20 -65
-10 -75 -11 -3 -27 -13 -36 -22 -8 -9 -29 -16 -45 -17 -30 -1 -37 -10 -18 -21
6 -4 14 -17 19 -29 7 -18 9 -18 9 -3 1 19 38 56 57 57 18 0 59 51 59 73 0 43
-53 76 -95 60z"/>
<path d="M2035 719 c-11 -17 1 -21 15 -4 8 9 8 15 2 15 -6 0 -14 -5 -17 -11z"/>
<path d="M1763 695 c0 -8 4 -12 9 -9 5 3 6 10 3 15 -9 13 -12 11 -12 -6z"/>
<path d="M1807 703 c-5 -7 -5 -13 -1 -13 3 0 -4 -9 -17 -20 -13 -10 -19 -19
-13 -20 5 0 15 5 21 11 8 8 25 1 62 -25 28 -20 56 -36 62 -36 7 0 9 -10 5 -27
l-5 -28 12 25 c6 14 17 31 24 38 18 18 16 27 -2 12 -12 -10 -22 -7 -52 11 -21
13 -44 29 -51 36 -7 7 -17 13 -22 13 -5 0 -10 8 -12 18 -3 12 -6 14 -11 5z"/>
<path d="M364 685 c-10 -8 -14 -15 -8 -15 6 0 17 7 24 15 16 19 9 19 -16 0z"/>
<path d="M1858 693 c7 -3 16 -2 19 1 4 3 -2 6 -13 5 -11 0 -14 -3 -6 -6z"/>
<path d="M330 660 c0 -5 5 -10 11 -10 5 0 7 5 4 10 -3 6 -8 10 -11 10 -2 0 -4
-4 -4 -10z"/>
<path d="M1746 647 c3 -10 9 -15 12 -12 3 3 0 11 -7 18 -10 9 -11 8 -5 -6z"/>
<path d="M250 620 c0 -5 5 -10 11 -10 5 0 7 5 4 10 -3 6 -8 10 -11 10 -2 0 -4
-4 -4 -10z"/>
<path d="M470 621 c0 -5 5 -13 10 -16 6 -3 10 -2 10 4 0 5 -4 13 -10 16 -5 3
-10 2 -10 -4z"/>
<path d="M1730 599 c0 -5 5 -7 10 -4 6 3 10 8 10 11 0 2 -4 4 -10 4 -5 0 -10
-5 -10 -11z"/>
<path d="M1850 591 c0 -6 4 -12 8 -15 5 -3 9 1 9 9 0 8 -4 15 -9 15 -4 0 -8
-4 -8 -9z"/>
<path d="M1775 572 c-16 -11 -17 -32 -2 -47 12 -12 17 -12 36 1 17 12 19 19
11 35 -11 20 -28 24 -45 11z"/>
<path d="M361 544 c0 -11 3 -14 6 -6 3 7 2 16 -1 19 -3 4 -6 -2 -5 -13z"/>
<path d="M436 547 c-15 -11 -17 -17 -7 -35 14 -26 33 -28 51 -6 11 12 10 18
-6 35 -17 17 -22 17 -38 6z"/>
<path d="M1635 513 c-28 -25 -43 -43 -33 -40 18 6 32 -22 43 -86 7 -43 10 -43
-62 6 -24 16 -43 36 -43 45 0 11 -3 13 -8 6 -4 -6 -27 -21 -52 -32 -25 -12
-37 -21 -28 -22 13 0 17 -7 14 -27 -2 -16 -1 -22 1 -15 2 6 9 12 14 12 5 0 9
9 9 19 0 35 28 30 95 -15 37 -24 71 -44 76 -44 12 0 12 57 0 62 -5 2 -12 31
-16 64 -8 77 7 88 58 40 47 -44 63 -76 46 -87 -11 -7 -10 -9 3 -9 9 0 28 14
42 31 14 17 31 27 37 23 8 -4 7 -9 -2 -15 -10 -6 -10 -9 -2 -9 17 0 29 23 14
28 -9 3 -9 8 1 20 12 15 11 15 -4 4 -13 -10 -22 -11 -38 -2 -12 6 -24 9 -27 7
-2 -3 5 -8 16 -12 20 -6 19 -35 -2 -35 -17 0 -107 104 -95 111 5 4 6 9 1 12
-5 3 -31 -15 -58 -40z"/>
<path d="M567 468 c-3 -38 -11 -76 -18 -84 -14 -17 -6 -29 14 -21 9 3 14 24
16 59 1 29 6 55 11 56 15 5 12 49 -4 55 -10 4 -15 -11 -19 -65z"/>
<path d="M396 477 c3 -10 9 -15 12 -12 3 3 0 11 -7 18 -10 9 -11 8 -5 -6z"/>
<path d="M480 476 c0 -2 7 -7 16 -10 8 -3 12 -2 9 4 -6 10 -25 14 -25 6z"/>
<path d="M617 469 c7 -7 15 -10 18 -7 3 3 -2 9 -12 12 -14 6 -15 5 -6 -5z"/>
<path d="M358 463 c7 -3 16 -2 19 1 4 3 -2 6 -13 5 -11 0 -14 -3 -6 -6z"/>
<path d="M513 437 c-16 -18 -35 -31 -41 -29 -7 2 -12 -1 -12 -7 0 -6 6 -11 13
-11 8 0 19 -10 26 -22 11 -22 11 -22 6 3 -4 25 20 70 50 91 7 5 6 8 -1 8 -7 0
-25 -15 -41 -33z"/>
<path d="M1670 466 c0 -2 7 -7 16 -10 8 -3 12 -2 9 4 -6 10 -25 14 -25 6z"/>
<path d="M662 444 c-7 -7 -11 -16 -10 -20 2 -3 -10 -28 -27 -55 -23 -37 -35
-47 -50 -44 -17 4 -16 3 3 -6 12 -7 22 -16 22 -21 0 -4 5 -8 11 -8 5 0 7 5 4
10 -3 6 3 22 14 36 12 15 21 33 21 40 0 8 4 14 9 14 5 0 12 9 16 19 3 11 14
21 23 23 15 3 15 5 -3 15 -15 8 -23 8 -33 -3z"/>
<path d="M1691 417 c-13 -21 -12 -21 5 -5 10 10 16 20 13 22 -3 3 -11 -5 -18
-17z"/>
<path d="M1860 425 c-7 -9 -11 -17 -9 -20 3 -2 10 5 17 15 14 24 10 26 -8 5z"/>
<path d="M601 410 c-17 -14 -19 -20 -8 -20 9 0 23 7 31 16 31 30 13 33 -23 4z"/>
<path d="M740 393 c-21 -6 -49 -47 -56 -81 -9 -45 36 -92 87 -92 24 0 38 4 34
10 -3 6 -19 10 -35 10 -38 0 -60 24 -60 64 0 40 33 86 62 86 27 0 66 -32 60
-50 -3 -8 -12 -23 -21 -33 -15 -18 -14 -18 9 -7 15 6 30 25 36 45 6 19 7 32 2
29 -4 -3 -18 2 -30 10 -21 15 -56 19 -88 9z"/>
<path d="M1383 370 c-4 -5 -19 -10 -33 -12 -15 -2 -26 -11 -29 -23 -2 -11 -7
-22 -12 -25 -4 -3 -4 -12 1 -20 8 -13 10 -13 10 1 0 20 33 59 49 59 14 0 124
-70 129 -82 2 -5 11 -8 20 -8 15 0 15 -2 2 -11 -12 -8 -10 -9 10 -5 14 3 28 6
33 6 4 0 7 5 7 11 0 5 -4 7 -10 4 -10 -6 -97 48 -142 88 -14 14 -30 21 -35 17z"/>
<path d="M1705 370 c-3 -5 -2 -10 4 -10 5 0 13 5 16 10 3 6 2 10 -4 10 -5 0
-13 -4 -16 -10z"/>
<path d="M1748 363 c7 -3 16 -2 19 1 4 3 -2 6 -13 5 -11 0 -14 -3 -6 -6z"/>
<path d="M460 346 c7 -7 13 -7 20 0 6 6 3 10 -10 10 -13 0 -16 -4 -10 -10z"/>
<path d="M878 353 c6 -2 12 -17 12 -33 0 -15 7 -33 15 -40 8 -7 15 -22 16 -34
0 -11 4 -30 8 -41 7 -18 10 -16 26 15 10 19 22 38 28 41 5 4 6 12 2 19 -5 8
-12 2 -21 -19 -18 -43 -30 -33 -38 31 -7 53 -18 68 -46 67 -10 0 -11 -2 -2 -6z"/>
<path d="M950 329 c0 -5 5 -7 10 -4 6 3 10 8 10 11 0 2 -4 4 -10 4 -5 0 -10
-5 -10 -11z"/>
<path d="M996 314 c-8 -21 -8 -26 2 -21 16 11 0 -102 -18 -121 -19 -20 -18
-20 26 -24 45 -3 45 -3 24 14 -18 14 -21 25 -16 51 3 17 6 34 6 37 1 3 5 22 9
43 8 32 7 37 -9 37 -10 0 -21 -7 -24 -16z"/>
<path d="M1107 323 c-4 -3 -7 -38 -7 -76 0 -55 -4 -73 -17 -83 -16 -12 -8 -13
55 -14 65 0 72 2 72 19 0 11 -5 23 -12 27 -8 5 -9 2 -5 -9 5 -14 0 -17 -32
-17 l-38 0 -7 67 c-6 58 -4 69 10 80 15 11 15 13 3 13 -9 0 -19 -3 -22 -7z"/>
<path d="M1215 320 c25 -10 135 -116 135 -130 0 -5 11 -10 24 -10 20 0 13 11
-53 75 -55 53 -85 75 -102 74 -22 0 -22 -1 -4 -9z"/>
<path d="M1733 323 c4 -3 1 -13 -6 -22 -11 -14 -10 -14 5 -2 16 12 16 31 1 31
-4 0 -3 -3 0 -7z"/>
<path d="M1156 305 c-3 -8 -1 -15 4 -15 6 0 10 7 10 15 0 8 -2 15 -4 15 -2 0
-6 -7 -10 -15z"/>
<path d="M1699 303 c-13 -16 -12 -17 4 -4 16 13 21 21 13 21 -2 0 -10 -8 -17
-17z"/>
<path d="M1357 299 c7 -7 15 -10 18 -7 3 3 -2 9 -12 12 -14 6 -15 5 -6 -5z"/>
<path d="M565 290 c-3 -5 -1 -10 4 -10 6 0 11 5 11 10 0 6 -2 10 -4 10 -3 0
-8 -4 -11 -10z"/>
<path d="M871 279 c4 -31 -14 -77 -35 -87 -19 -9 -17 -11 16 -11 36 -1 37 0
28 24 -6 15 -6 26 0 30 13 8 13 42 -1 50 -6 4 -9 1 -8 -6z"/>
<path d="M1442 267 c3 -15 2 -28 -2 -29 -13 -5 -22 -48 -11 -48 6 0 11 5 11
10 0 6 10 10 23 11 12 0 16 3 10 6 -7 2 -13 18 -13 33 0 16 -5 32 -11 36 -8 5
-10 -1 -7 -19z"/>
<path d="M1596 278 c3 -4 0 -8 -7 -8 -7 0 -10 -3 -6 -6 3 -3 16 1 28 9 22 16
22 16 1 14 -11 0 -18 -5 -16 -9z"/>
<path d="M637 255 c10 -13 22 -25 27 -25 5 0 -1 11 -14 25 -30 32 -36 32 -13
0z"/>
<path d="M810 266 c0 -8 5 -18 12 -22 7 -5 8 -3 3 6 -4 7 -2 16 6 21 11 7 10
9 -3 9 -10 0 -18 -6 -18 -14z"/>
<path d="M1390 269 c0 -5 5 -7 10 -4 6 3 10 8 10 11 0 2 -4 4 -10 4 -5 0 -10
-5 -10 -11z"/>
<path d="M1658 273 c7 -3 16 -2 19 1 4 3 -2 6 -13 5 -11 0 -14 -3 -6 -6z"/>
<path d="M1170 260 c0 -5 5 -10 11 -10 5 0 7 5 4 10 -3 6 -8 10 -11 10 -2 0
-4 -4 -4 -10z"/>
<path d="M590 251 c0 -6 5 -13 12 -17 6 -4 8 -3 4 4 -3 5 0 13 6 15 8 3 6 6
-4 6 -10 1 -18 -3 -18 -8z"/>
<path d="M1280 225 c0 -8 -3 -15 -7 -15 -11 0 -34 -52 -27 -59 4 -3 9 0 11 7
3 6 14 12 26 12 16 0 18 3 9 9 -9 5 -11 17 -6 34 3 15 3 27 0 27 -3 0 -6 -7
-6 -15z"/>
<path d="M1590 229 c0 -15 18 -19 23 -6 3 8 -1 14 -9 14 -8 0 -14 -4 -14 -8z"/>
<path d="M1175 219 c-4 -6 -5 -12 -2 -15 2 -3 7 2 10 11 7 17 1 20 -8 4z"/>
<path d="M1208 223 c6 -2 18 -2 25 0 6 3 1 5 -13 5 -14 0 -19 -2 -12 -5z"/>
<path d="M1480 170 c-9 -6 -10 -10 -3 -10 6 0 15 5 18 10 8 12 4 12 -15 0z"/>
<path d="M1378 143 c7 -3 16 -2 19 1 4 3 -2 6 -13 5 -11 0 -14 -3 -6 -6z"/>
<path d="M928 133 c6 -2 18 -2 25 0 6 3 1 5 -13 5 -14 0 -19 -2 -12 -5z"/>
<path d="M1235 119 c-11 -16 -1 -19 13 -3 7 8 8 14 3 14 -5 0 -13 -5 -16 -11z"/>
<path d="M1071 104 c0 -11 3 -14 6 -6 3 7 2 16 -1 19 -3 4 -6 -2 -5 -13z"/>
<path d="M540 2166 c0 -2 7 -7 16 -10 8 -3 12 -2 9 4 -6 10 -25 14 -25 6z"/>
<path d="M1673 2155 c0 -7 10 -10 24 -7 13 2 23 6 23 7 0 1 -10 5 -23 7 -14 3
-24 0 -24 -7z"/>
<path d="M500 2109 c0 -5 5 -7 10 -4 6 3 10 8 10 11 0 2 -4 4 -10 4 -5 0 -10
-5 -10 -11z"/>
<path d="M1780 2080 c-13 -8 -12 -10 3 -10 9 0 17 5 17 10 0 12 -1 12 -20 0z"/>
<path d="M445 2070 c-3 -6 1 -7 9 -4 18 7 21 14 7 14 -6 0 -13 -4 -16 -10z"/>
<path d="M414 2034 c-18 -14 -18 -15 4 -4 12 6 22 13 22 15 0 8 -5 6 -26 -11z"/>
<path d="M1905 1999 c-4 -6 -5 -12 -2 -15 2 -3 7 2 10 11 7 17 1 20 -8 4z"/>
<path d="M1975 1920 c-3 -6 1 -7 9 -4 18 7 21 14 7 14 -6 0 -13 -4 -16 -10z"/>
<path d="M197 1835 c3 -8 9 -12 14 -9 12 7 11 11 -5 17 -10 4 -13 1 -9 -8z"/>
<path d="M171 1814 c10 -13 10 -17 -2 -25 -9 -5 -10 -9 -2 -9 6 0 14 4 17 9 8
12 -4 41 -16 41 -6 0 -5 -7 3 -16z"/>
<path d="M141 1754 c0 -11 3 -14 6 -6 3 7 2 16 -1 19 -3 4 -6 -2 -5 -13z"/>
<path d="M115 1720 c-3 -5 -1 -10 4 -10 6 0 11 5 11 10 0 6 -2 10 -4 10 -3 0
-8 -4 -11 -10z"/>
<path d="M2121 1715 c0 -11 6 -28 13 -38 12 -16 14 -16 20 -1 9 23 7 31 -4 14
-8 -13 -9 -13 -14 0 -13 43 -14 45 -15 25z"/>
<path d="M2190 1599 c0 -5 5 -7 10 -4 6 3 10 8 10 11 0 2 -4 4 -10 4 -5 0 -10
-5 -10 -11z"/>
<path d="M2223 1583 c-1 -24 -1 -25 7 -8 11 26 12 35 2 35 -4 0 -8 -12 -9 -27z"/>
<path d="M35 700 c3 -5 8 -10 11 -10 2 0 4 5 4 10 0 6 -5 10 -11 10 -5 0 -7
-4 -4 -10z"/>
<path d="M1 664 c0 -11 3 -14 6 -6 3 7 2 16 -1 19 -3 4 -6 -2 -5 -13z"/>
<path d="M61 664 c0 -11 3 -14 6 -6 3 7 2 16 -1 19 -3 4 -6 -2 -5 -13z"/>
<path d="M25 660 c-3 -5 -1 -10 4 -10 6 0 11 5 11 10 0 6 -2 10 -4 10 -3 0 -8
-4 -11 -10z"/>
<path d="M2151 534 c0 -11 3 -14 6 -6 3 7 2 16 -1 19 -3 4 -6 -2 -5 -13z"/>
<path d="M91 524 c0 -11 3 -14 6 -6 3 7 2 16 -1 19 -3 4 -6 -2 -5 -13z"/>
<path d="M160 451 c0 -10 19 -25 25 -20 1 2 -3 10 -11 17 -8 7 -14 8 -14 3z"/>
<path d="M2071 384 c0 -11 3 -14 6 -6 3 7 2 16 -1 19 -3 4 -6 -2 -5 -13z"/>
<path d="M1985 371 c-3 -5 -2 -12 3 -15 5 -3 9 1 9 9 0 17 -3 19 -12 6z"/>
<path d="M276 342 c-3 -5 1 -9 9 -9 8 0 12 4 9 9 -3 4 -7 8 -9 8 -2 0 -6 -4
-9 -8z"/>
<path d="M1958 333 c7 -3 16 -2 19 1 4 3 -2 6 -13 5 -11 0 -14 -3 -6 -6z"/>
<path d="M320 301 c0 -6 4 -13 10 -16 6 -3 7 1 4 9 -7 18 -14 21 -14 7z"/>
<path d="M1903 283 c4 -3 1 -13 -6 -22 -11 -14 -10 -14 6 -2 20 15 22 31 5 31
-6 0 -8 -3 -5 -7z"/>
<path d="M420 180 c-9 -6 -10 -10 -3 -10 6 0 15 5 18 10 8 12 4 12 -15 0z"/>
<path d="M1660 110 c-9 -6 -10 -10 -3 -10 6 0 15 5 18 10 8 12 4 12 -15 0z"/>
<path d="M518 93 c7 -3 16 -2 19 1 4 3 -2 6 -13 5 -11 0 -14 -3 -6 -6z"/>
<path d="M1698 93 c7 -3 16 -2 19 1 4 3 -2 6 -13 5 -11 0 -14 -3 -6 -6z"/>
<path d="M648 13 c6 -2 18 -2 25 0 6 3 1 5 -13 5 -14 0 -19 -2 -12 -5z"/>
<path d="M1418 13 c7 -3 16 -2 19 1 4 3 -2 6 -13 5 -11 0 -14 -3 -6 -6z"/>
</g>
</svg>
